<svg version="1.1" id="Layer_1" xmlns="http://www.w3.org/2000/svg" xmlns:xlink="http://www.w3.org/1999/xlink" x="0px" y="0px"
	 width="100%" viewBox="0 0 1080 1080" enable-background="new 0 0 1080 1080" xml:space="preserve">
<path fill="#000" opacity="1.000000" stroke="none" 
	d="
M500.000000,1081.000000 
	C333.352509,1081.000000 167.205017,1081.000000 1.028762,1081.000000 
	C1.028762,721.060730 1.028762,361.121429 1.028762,1.091075 
	C360.897736,1.091075 720.795471,1.091075 1080.846680,1.091075 
	C1080.846680,360.999939 1080.846680,720.999939 1080.846680,1081.000000 
	C887.454346,1081.000000 693.977173,1081.000000 500.000000,1081.000000 
M95.792397,545.822937 
	C95.503639,545.328369 95.214882,544.833862 94.847443,543.596191 
	C91.165482,540.332764 90.602654,536.113831 90.991035,531.516663 
	C91.184647,529.224854 91.205170,526.886353 90.986313,524.599304 
	C90.634842,520.926514 91.841980,518.893982 96.206444,519.830017 
	C102.841179,519.888611 109.475922,519.947144 116.449997,520.541687 
	C116.627106,520.657227 116.804214,520.772705 116.582069,521.765137 
	C116.718613,527.511108 116.855148,533.257019 116.414154,539.488525 
	C115.639702,540.446716 114.865242,541.404846 113.421288,542.404541 
	C110.943420,545.908203 109.921951,549.320312 114.427063,553.053650 
	C115.190987,553.672913 115.954910,554.292236 116.561646,555.331482 
	C116.834923,555.589783 117.108200,555.848022 117.381470,556.106323 
	C117.513023,555.875183 117.644577,555.644043 118.563896,555.921265 
	C120.397408,555.901306 122.230911,555.881409 124.347084,556.222168 
	C124.822975,555.790955 125.298874,555.359802 126.426804,554.700134 
	C126.595062,554.542908 126.763321,554.385681 127.542664,554.450195 
	C132.701111,549.742676 132.830566,544.617310 127.782852,541.163696 
	C127.782852,541.163696 127.538078,541.141907 127.470657,540.299866 
	C127.115997,538.064514 126.619759,535.840576 126.437263,533.591248 
	C126.096519,529.391418 125.938004,525.176758 126.402985,520.430176 
	C126.586479,520.200317 126.769966,519.970459 127.763466,520.261719 
	C134.234406,520.329163 140.709488,520.291565 147.172958,520.547546 
	C148.560486,520.602478 151.118439,521.790405 151.086395,522.335938 
	C150.694061,529.016418 153.800430,536.078552 148.202545,542.312134 
	C146.544968,544.157898 146.201569,548.583008 147.210663,551.015259 
	C148.145920,553.269531 151.692551,554.440247 154.765656,556.412109 
	C155.499237,556.335510 156.232803,556.258911 157.639771,556.487183 
	C164.332596,555.223511 168.655014,548.692810 164.878296,543.794983 
	C160.119934,537.624146 161.926010,531.163208 161.376755,524.731750 
	C161.133621,521.884827 162.179047,520.639343 165.271881,520.359253 
	C174.316132,519.540161 179.084549,514.600891 180.568069,505.490753 
	C180.796692,504.086761 182.098846,501.690552 182.830917,501.717957 
	C189.435242,501.965485 196.395294,499.181427 202.521545,504.196075 
	C205.962418,507.012573 212.415115,505.733704 215.105728,502.240143 
	C217.772583,498.777435 217.250671,491.936646 214.083557,488.842743 
	C210.317307,485.163574 205.626862,485.143066 201.533356,488.465363 
	C199.962662,489.740112 197.980804,491.026794 196.064377,491.247009 
	C192.282303,491.681519 188.413879,491.314819 184.583618,491.395538 
	C181.554749,491.459351 180.452393,489.959961 180.488556,487.093567 
	C180.559982,481.429779 180.303024,475.750702 180.674438,470.110352 
	C180.759796,468.814056 182.858261,466.576843 183.992996,466.600037 
	C190.590515,466.734680 197.428696,464.768951 203.478256,469.946686 
	C206.900208,472.875458 211.955673,471.247009 215.003540,467.585541 
	C217.367142,464.746216 217.446838,458.404236 215.156464,455.415649 
	C212.244034,451.615204 207.019913,449.646210 203.742813,452.464966 
	C198.220093,457.215302 192.039520,456.223083 185.815506,456.466278 
	C182.009109,456.614990 180.211685,455.285950 180.458801,451.303162 
	C180.654465,448.149750 180.500458,444.974457 180.498001,441.808899 
	C180.488861,430.074524 179.764648,431.204468 190.987061,431.443176 
	C194.418350,431.516205 198.336441,432.112915 201.117966,433.895416 
	C205.408783,436.645172 209.770111,437.423645 213.339920,434.372803 
	C217.043198,431.207916 217.999435,425.359253 215.496353,421.183044 
	C213.274399,417.475891 207.163025,415.076294 203.737228,417.954865 
	C197.917267,422.845093 191.503235,421.038940 185.225006,421.472656 
	C182.250687,421.678162 180.772522,420.599152 180.406647,417.297424 
	C179.393784,408.157562 174.711395,403.372894 165.821091,402.492249 
	C162.286713,402.142181 161.225021,400.638672 161.363174,397.414551 
	C161.582581,392.294189 161.647552,387.167175 162.538422,381.598480 
	C162.984497,380.897247 163.430557,380.196014 164.413940,379.569031 
	C164.491638,379.060150 164.569351,378.551239 165.113037,377.433197 
	C165.479416,373.647888 165.202805,370.122162 161.461166,367.559387 
	C160.975937,367.441925 160.490692,367.324463 159.310257,366.633698 
	C154.706314,365.390900 150.579636,365.992462 147.993607,370.391876 
	C145.380508,374.837250 146.051163,378.882782 150.027664,382.458862 
	C150.984802,383.319672 151.437073,385.120270 151.505646,386.518860 
	C151.701096,390.505035 151.924545,394.552551 151.404251,398.478851 
	C151.208664,399.954681 149.071335,402.214844 147.692261,402.311829 
	C141.728790,402.731232 135.715866,402.568390 129.727142,402.398193 
	C128.631821,402.367065 126.596359,401.246429 126.632256,400.746124 
	C127.112930,394.046448 123.876701,387.044891 128.921051,380.609039 
	C130.510025,378.581726 130.740112,374.706909 130.171478,371.973175 
	C129.492981,368.711243 127.064880,366.071777 122.247551,366.280762 
	C121.519600,366.345276 120.791649,366.409790 119.354393,366.283386 
	C114.984421,366.796265 112.716263,369.695770 111.835106,373.587708 
	C111.218033,376.313232 111.250893,379.256409 114.842033,381.124359 
	C115.539169,381.762268 116.236305,382.400177 116.859055,383.963715 
	C116.383781,390.239075 115.908508,396.514404 115.501030,402.377960 
	C115.265038,402.362091 115.029053,402.346222 114.793053,402.330383 
	C114.854568,402.548553 114.916084,402.766724 113.927460,402.936127 
	C109.580795,403.103668 105.234138,403.271210 100.367172,402.850739 
	C91.256706,401.913055 91.256699,401.913055 91.262680,392.313629 
	C91.263092,391.648346 91.289848,390.981873 91.259712,390.317963 
	C91.090927,386.600037 91.624619,383.510803 94.555534,380.426147 
	C99.130890,375.610840 95.901573,368.356262 88.159554,366.283386 
	C86.795921,366.455078 85.432289,366.626770 83.433456,366.534790 
	C77.805641,369.092682 74.773216,374.921295 78.216560,379.234009 
	C83.046280,385.283051 81.201668,391.775604 81.681427,398.176575 
	C81.894905,401.024750 80.558762,402.247070 77.635788,402.573242 
	C67.546165,403.699066 63.995941,407.527008 62.398014,417.626892 
	C62.162113,419.117920 59.969582,421.377838 58.617115,421.425354 
	C53.029701,421.621552 47.417202,421.103241 41.656288,420.400848 
	C41.656288,420.400848 41.237682,420.179260 41.375309,419.601898 
	C40.240925,419.116241 39.106537,418.630615 37.255615,417.633911 
	C35.850025,417.773224 34.444435,417.912567 32.502808,417.672729 
	C31.444534,418.464935 30.386265,419.257111 28.754543,420.380035 
	C28.527470,420.751038 28.300398,421.122070 27.567039,421.458740 
	C27.441477,421.981201 27.315914,422.503662 26.641195,423.761047 
	C26.774088,425.827209 26.906981,427.893372 26.791805,430.548309 
	C28.036282,434.704529 31.286543,436.459808 35.134937,436.140106 
	C37.277916,435.962067 39.271679,433.987946 41.704021,432.664917 
	C41.704021,432.664917 41.827831,432.280670 42.669437,432.259399 
	C48.404289,431.937866 54.140930,431.431213 59.872131,431.486603 
	C60.771358,431.495270 62.335400,434.017975 62.410458,435.440552 
	C62.707024,441.060944 62.672043,446.712097 62.433743,452.337982 
	C62.375801,453.705841 61.036247,456.199799 60.351433,456.177368 
	C53.788891,455.962463 46.906754,458.638184 40.831963,453.503540 
	C35.652988,449.126099 28.743328,451.629730 26.436863,458.689575 
	C25.202072,463.285675 26.737600,466.938782 30.610981,469.410278 
	C34.646389,471.985199 38.416149,471.296387 41.921829,467.942627 
	C43.002476,466.908783 44.795513,466.207916 46.308395,466.116577 
	C50.458450,465.865875 54.633774,466.067719 58.797493,465.996674 
	C61.515541,465.950317 62.754478,467.146027 62.728310,469.885590 
	C62.671028,475.882324 62.822895,481.884003 62.611591,487.873840 
	C62.568974,489.081940 61.230835,491.307343 60.601784,491.268158 
	C53.919788,490.852112 46.790512,494.182312 40.674915,488.478149 
	C37.068649,485.114532 31.225109,486.146851 28.270809,489.959961 
	C25.041323,494.128113 25.583595,500.435699 29.429005,503.432373 
	C33.554039,506.646912 38.647610,505.916046 42.870762,501.614685 
	C47.957607,501.477814 53.048500,501.423431 58.129810,501.173859 
	C61.277866,501.019257 62.253922,502.347351 62.711025,505.428497 
	C63.095837,508.022461 64.879799,510.408813 66.130203,513.489807 
	C66.721954,514.010193 67.313698,514.530518 68.083855,515.741516 
	C70.432716,516.825806 72.781578,517.910095 75.429367,519.630676 
	C77.332359,521.203308 81.783127,518.901245 81.628212,523.504333 
	C81.430519,529.378601 80.985100,535.244507 80.266388,541.200500 
	C80.266388,541.200500 80.108627,541.556946 79.525009,541.529175 
	C79.057617,542.656921 78.590225,543.784729 77.630608,545.654480 
	C77.757828,546.791199 77.885048,547.927917 77.681000,549.652283 
	C78.591919,553.507812 80.597191,556.123779 85.727577,556.455505 
	C86.827858,556.302856 87.928131,556.150208 89.559906,556.235840 
	C90.442101,555.517395 91.324295,554.798950 92.772865,553.886902 
	C93.293579,553.078674 93.814301,552.270386 94.849190,551.230774 
	C94.976082,550.514893 95.102974,549.799011 95.651741,548.360535 
	C95.533089,547.561401 95.414429,546.762268 95.792397,545.822937 
M286.388885,486.963715 
	C282.393616,480.255829 278.512177,473.476257 274.352112,466.872162 
	C272.448669,463.850464 272.514893,462.627136 276.314850,461.314087 
	C288.015900,457.270874 295.320465,445.548706 294.386749,433.260742 
	C293.438171,420.777496 284.945953,410.267578 272.199280,408.635651 
	C260.067139,407.082397 247.666885,407.704742 235.398758,407.087250 
	C231.136475,406.872742 230.106506,408.417358 230.128860,412.478973 
	C230.284668,440.781036 230.207977,469.084320 230.220139,497.387238 
	C230.220764,498.850647 230.352753,500.313995 230.452362,502.371765 
	C232.829086,502.371765 234.977280,502.144592 237.059982,502.417389 
	C241.932312,503.055695 243.861450,501.569611 243.576355,496.217682 
	C243.089981,487.086792 243.404526,477.910828 243.484116,468.754700 
	C243.496475,467.333832 243.612244,465.553802 244.434464,464.570679 
	C246.521881,462.074829 257.580505,463.695221 259.298431,466.614960 
	C265.442596,477.057159 271.487885,487.557831 277.681854,497.970184 
	C278.645721,499.590485 280.055664,501.920135 281.490753,502.102722 
	C285.802643,502.651337 290.228943,502.300385 295.630554,502.300385 
	C292.201233,496.654602 289.456726,492.136200 286.388885,486.963715 
M845.629028,442.505432 
	C845.629028,437.579315 845.629028,432.653168 845.629028,427.648621 
	C843.876648,427.521362 842.898987,427.403687 841.919617,427.386566 
	C833.373718,427.237000 833.386353,427.243713 832.482056,435.633301 
	C832.423523,436.176147 831.941406,436.673340 831.639465,437.222321 
	C811.624023,423.181030 792.799805,422.882599 780.186340,436.230042 
	C766.463745,450.751251 765.848633,475.896759 778.877197,491.647858 
	C784.186096,498.066071 791.145630,501.971313 799.232971,503.273895 
	C811.865601,505.308502 822.706665,501.281189 831.497498,491.514252 
	C832.521301,495.526733 832.361023,500.335236 834.458862,501.718109 
	C836.973022,503.375397 841.414124,502.109497 845.628601,502.109497 
	C845.628601,482.348663 845.628601,462.925903 845.629028,442.505432 
M318.164185,492.348907 
	C327.170074,501.686218 338.388306,504.966888 350.911224,503.415863 
	C363.811676,501.818115 373.619507,495.402527 378.643066,482.925568 
	C379.085205,481.827423 379.011108,479.666473 378.304199,479.112518 
	C375.621429,477.010010 366.280945,479.135590 364.602814,482.161255 
	C359.453705,491.445038 350.989197,493.378632 341.542633,492.200287 
	C332.413544,491.061584 326.013977,485.924255 322.925659,477.041931 
	C320.704803,470.654449 321.320160,469.725159 327.855957,469.721436 
	C344.005005,469.712311 360.154877,469.629211 376.302460,469.782410 
	C380.146088,469.818848 381.984131,468.635193 381.501099,464.652405 
	C380.966461,460.244263 380.958679,455.706238 379.870483,451.441925 
	C372.919220,424.202332 338.409851,418.587067 319.910187,435.473755 
	C304.962555,449.118134 304.146454,474.475769 318.164185,492.348907 
M551.239197,464.500305 
	C551.237793,453.507233 551.161926,442.513306 551.283875,431.521606 
	C551.317017,428.533051 550.311584,427.153839 547.270081,427.351471 
	C545.777405,427.448425 544.256226,427.510284 542.777344,427.337372 
	C538.907471,426.885040 537.607788,428.323578 537.676575,432.356293 
	C537.903809,445.676697 538.000244,459.012665 537.592773,472.325714 
	C537.330505,480.897675 533.610535,487.961334 524.896667,490.753418 
	C516.330261,493.498199 508.065338,492.819885 501.445160,485.800751 
	C497.014282,481.102814 496.462585,475.055389 496.412476,469.014404 
	C496.310242,456.689667 496.462982,444.362183 496.269073,432.039642 
	C496.244537,430.482178 494.968842,427.797119 493.927002,427.615173 
	C490.627472,427.039093 487.163971,427.402344 483.543701,427.402344 
	C483.543701,443.152863 483.397247,457.970642 483.590240,472.783966 
	C483.743530,484.551544 488.036957,494.671722 498.940643,499.985474 
	C510.369110,505.554962 522.086182,505.576630 532.816833,497.353119 
	C533.939087,496.493103 535.253662,495.884033 537.028137,494.833405 
	C537.526245,497.640717 537.909790,499.802643 538.365601,502.371429 
	C541.218628,502.371429 543.870605,502.213593 546.496277,502.409363 
	C550.209778,502.686188 551.390808,501.186981 551.315430,497.478638 
	C551.098633,486.823090 551.238220,476.160339 551.239197,464.500305 
M464.563019,454.788055 
	C463.651642,444.077393 459.773315,434.930542 449.759644,429.823669 
	C435.861084,422.735504 422.866272,424.998138 411.047699,435.298828 
	C409.572113,426.996704 409.572113,426.996826 401.293396,427.365692 
	C401.127106,427.373108 400.959137,427.380310 400.793762,427.366394 
	C398.233276,427.151398 397.278198,428.296875 397.284882,430.878601 
	C397.343689,453.537201 397.278259,476.196259 397.420471,498.854095 
	C397.427795,500.016937 398.886749,502.049683 399.854919,502.168396 
	C403.218353,502.580902 406.663452,502.327667 410.396301,502.327667 
	C410.396301,499.632629 410.395142,497.813568 410.396515,495.994537 
	C410.406036,483.165771 410.094574,470.326660 410.505402,457.510742 
	C411.049347,440.543213 425.825806,433.593048 440.366516,439.227783 
	C448.750732,442.476807 451.456055,449.764709 451.522400,458.161133 
	C451.626404,471.322418 451.684906,484.487091 451.476990,497.645844 
	C451.416718,501.459167 452.708252,502.743195 456.369507,502.415131 
	C458.956055,502.183380 461.580139,502.370239 464.588715,502.370239 
	C464.588715,486.307098 464.588715,471.016449 464.563019,454.788055 
M933.636414,470.500641 
	C933.573059,465.172119 933.697510,459.833557 933.413452,454.516846 
	C932.242065,432.592407 912.454407,422.412384 896.272705,426.967194 
	C890.551941,428.577454 885.233398,431.616638 879.849121,433.952332 
	C878.284424,426.776306 876.038696,425.682587 866.399048,428.160736 
	C866.399048,452.695526 866.399048,477.259155 866.399048,502.372070 
	C868.844055,502.372070 871.008728,502.128387 873.098572,502.420563 
	C878.129761,503.123932 879.642273,501.295837 879.493042,496.129517 
	C879.113159,482.982330 879.197144,469.810486 879.513306,456.658600 
	C879.701660,448.826599 882.944946,442.307037 890.711365,439.322693 
	C906.770142,433.151825 920.614746,441.708374 920.498291,458.407898 
	C920.407715,471.399933 920.637512,484.396027 920.393372,497.384094 
	C920.317566,501.416321 921.630188,502.892181 925.514771,502.393341 
	C926.661865,502.246033 927.860779,502.242279 929.006714,502.393860 
	C932.882141,502.906525 933.802429,501.086365 933.708984,497.483795 
	C933.484558,488.827850 933.636047,480.162109 933.636414,470.500641 
M581.852478,502.300446 
	C582.540588,500.690796 583.797363,499.090698 583.824585,497.469971 
	C584.003357,486.818542 583.769043,476.159637 583.986023,465.509613 
	C584.080017,460.898804 584.561890,456.226929 585.506653,451.716675 
	C587.492737,442.235687 594.794434,437.346039 605.988647,437.494781 
	C616.048645,437.628448 622.802734,442.749695 624.597290,452.050842 
	C625.440430,456.420593 625.947876,460.915283 626.017578,465.362579 
	C626.207397,477.471893 626.082825,489.586121 626.082825,501.890656 
	C630.501831,501.890656 634.347717,501.890656 638.231079,501.890656 
	C638.231079,484.793274 638.589661,468.148712 637.994995,451.538300 
	C637.833435,447.025452 635.534790,442.121460 632.944702,438.247650 
	C623.820496,424.601685 602.816895,421.948547 589.000122,432.209106 
	C587.680847,433.188812 586.221924,433.980499 584.342834,435.165222 
	C584.006470,432.106476 583.776672,430.016876 583.533386,427.804077 
	C579.416931,427.804077 575.554688,427.804077 571.707458,427.804077 
	C571.707458,452.768585 571.707458,477.305420 571.707458,502.345459 
	C575.064331,502.345459 578.024902,502.345459 581.852478,502.300446 
M668.161255,454.294128 
	C668.330811,453.649628 668.446838,452.985138 668.678162,452.363647 
	C671.620300,444.459167 676.979187,438.948334 685.430176,437.711060 
	C694.363647,436.403107 702.885986,437.679657 708.444458,446.021362 
	C712.402466,451.961090 717.663025,453.594086 724.314514,450.461700 
	C720.825195,434.470428 704.573730,424.110229 686.398560,426.290619 
	C665.162048,428.838196 652.750366,444.421661 653.487061,467.612518 
	C654.115540,487.397675 668.273804,502.509216 687.233704,503.631287 
	C706.023376,504.743286 721.837036,494.129272 724.231689,478.161591 
	C720.865051,478.161591 717.546143,477.844849 714.333740,478.292389 
	C712.676392,478.523285 710.326538,479.768250 709.790100,481.141266 
	C703.932007,496.133820 678.579346,496.455872 670.731934,481.804108 
	C666.171326,473.289032 666.242554,464.268494 668.161255,454.294128 
M966.786499,500.665100 
	C973.754395,501.439301 980.722351,502.213531 987.591370,502.976746 
	C989.360046,491.750732 989.360046,491.750671 979.922974,491.572266 
	C979.589783,491.565979 979.256226,491.572113 978.923340,491.559082 
	C971.441528,491.266754 969.106323,489.581116 968.882263,482.147766 
	C968.475830,468.663574 968.728088,455.159454 968.711914,441.663635 
	C968.708313,438.655182 970.317078,437.667908 973.189697,437.787598 
	C977.015564,437.946991 980.860168,437.676697 984.683838,437.859528 
	C988.617737,438.047638 988.418945,435.502686 988.292786,432.914520 
	C988.171204,430.420746 989.226074,427.222260 984.773499,427.359680 
	C980.944641,427.477905 977.099915,427.214264 973.279297,427.427185 
	C969.895142,427.615814 968.367249,426.551025 968.616760,422.935150 
	C968.868469,419.286957 968.877808,415.586853 968.533691,411.953003 
	C968.422546,410.778900 966.967834,408.936920 965.935547,408.794617 
	C962.869446,408.371979 959.707642,408.643219 955.967163,408.643219 
	C955.967163,415.115631 955.967163,421.032959 955.967163,427.043610 
	C952.432678,427.302551 949.508545,427.516785 946.034973,427.771271 
	C946.246155,431.116577 945.790833,434.328827 946.912842,436.834869 
	C947.400146,437.923126 951.338440,437.108643 953.316956,438.014984 
	C954.595398,438.600647 955.910828,440.729248 955.931580,442.184662 
	C956.131042,456.179138 956.091797,470.177551 956.050537,484.174652 
	C956.028381,491.702728 958.871582,497.390503 966.786499,500.665100 
M753.747925,499.076538 
	C753.747925,475.363281 753.747925,451.649994 753.747925,427.335693 
	C750.824646,427.335693 748.520752,427.549896 746.271545,427.290253 
	C741.844116,426.779114 740.271057,428.201111 740.335999,432.980164 
	C740.613770,453.421631 740.417114,473.869110 740.470886,494.314240 
	C740.493896,503.063660 739.036438,502.443695 748.857727,502.365448 
	C750.700867,502.350800 753.536865,503.615082 753.747925,499.076538 
M744.867065,524.125122 
	C742.499451,529.172791 740.131775,534.220459 737.409912,540.023254 
	C735.818787,536.075012 734.765747,532.921631 733.295776,529.976257 
	C731.998352,527.376587 732.412842,522.398193 726.537231,524.536438 
	C728.480652,529.460388 730.005371,534.357117 732.302002,538.860046 
	C734.746582,543.653076 735.297607,548.057983 732.555603,552.860901 
	C731.827820,554.135681 732.022400,555.937012 731.793457,557.496582 
	C732.346497,557.698486 732.899536,557.900391 733.452515,558.102234 
	C734.583069,556.445923 736.017273,554.919373 736.790588,553.110413 
	C739.851135,545.950684 742.572449,538.643860 745.724915,531.526855 
	C746.548462,529.667725 748.529480,526.922302 749.883423,526.976318 
	C753.112915,527.105347 752.813721,530.264954 752.757935,532.793762 
	C752.702881,535.291748 752.651062,537.796631 752.770508,540.290222 
	C752.992615,544.925659 755.856995,547.264648 760.391846,546.413269 
	C761.277588,546.246887 761.997742,545.198242 762.794250,544.556580 
	C762.115173,543.970581 761.443726,543.375427 760.755432,542.800598 
	C759.553223,541.796570 757.421875,540.906494 757.298584,539.789917 
	C756.868835,535.897644 757.132324,531.928833 757.132324,529.136780 
	C759.498352,527.472168 760.933289,526.462646 762.368286,525.453064 
	C760.788147,524.622253 759.208008,523.791382 757.373657,522.826904 
	C757.276489,521.952637 757.373840,520.714844 756.947754,519.695984 
	C756.634705,518.947510 755.656494,518.056702 754.936890,518.022461 
	C754.278198,517.991028 752.989685,519.005371 752.971863,519.589294 
	C752.805420,525.036804 749.279236,524.544373 744.867065,524.125122 
M951.928711,545.203003 
	C953.116638,545.657410 954.304626,546.111816 956.107788,546.801575 
	C956.107788,541.754211 956.153137,537.616821 956.098450,533.480774 
	C955.982422,524.706543 949.286133,520.782776 941.391724,524.771667 
	C940.303833,525.321350 938.359070,526.155457 937.931885,525.730652 
	C932.890808,520.717590 926.889893,525.505981 921.530701,524.059021 
	C921.108887,523.945068 919.521606,525.944092 919.478638,527.001831 
	C919.262756,532.318237 919.474060,537.650391 919.346985,542.972534 
	C919.264893,546.409058 920.698792,547.011108 923.871216,545.790527 
	C923.871216,541.543701 923.717957,537.396973 923.917725,533.267273 
	C924.090515,529.695618 925.832947,527.221680 929.805237,527.341980 
	C933.639038,527.458130 935.531555,529.641846 935.571045,533.416748 
	C935.614258,537.545715 935.580933,541.675537 935.580933,545.883850 
	C938.834351,546.924500 940.309875,546.312378 940.102478,542.894226 
	C939.921387,539.910217 939.951965,536.898438 940.119812,533.911987 
	C940.308716,530.551758 941.205688,527.606445 945.399902,527.329285 
	C949.816650,527.037598 951.339844,529.915100 951.705139,533.474304 
	C952.077209,537.099365 951.858948,540.784973 951.928711,545.203003 
M701.150391,526.560913 
	C701.146118,532.055725 701.239258,537.553040 701.099365,543.044373 
	C701.021240,546.110779 702.161987,546.797668 705.041016,546.103271 
	C706.578857,545.732300 708.400208,545.945190 709.963196,546.372070 
	C716.797668,548.238281 722.664307,544.903564 724.425110,537.979492 
	C726.143066,531.223938 722.497375,524.847900 715.739075,523.744080 
	C712.819153,523.267212 709.679443,524.135803 705.864868,524.458740 
	C705.864868,522.578186 706.161316,520.571594 705.752686,518.720642 
	C705.511047,517.626160 704.154419,516.777893 703.299194,515.818909 
	C702.581177,516.745361 701.378662,517.606445 701.243103,518.611511 
	C700.934326,520.900696 701.149109,523.260559 701.150391,526.560913 
M633.376343,538.844421 
	C633.827576,536.091736 634.812927,533.301331 634.621643,530.593994 
	C634.188843,524.468018 631.027710,519.841980 625.012085,517.988647 
	C619.468140,516.280579 614.100220,517.012207 609.855469,521.417786 
	C603.917969,527.580322 604.188110,538.042236 610.283081,543.283997 
	C617.273682,549.296021 626.977539,547.706360 633.376343,538.844421 
M786.111206,542.103027 
	C787.706116,538.373840 784.879639,539.273254 783.250244,539.640381 
	C782.269958,539.861206 781.600830,541.616943 780.646423,541.768799 
	C778.173889,542.162170 775.513428,542.505188 773.144958,541.947205 
	C771.951172,541.665833 771.228760,539.384033 769.525208,536.876282 
	C775.408447,536.876282 779.541809,536.688965 783.649963,536.930420 
	C787.536194,537.158875 788.343811,535.224426 787.615479,532.041626 
	C786.505920,527.192261 783.437805,524.043945 778.524170,523.370361 
	C773.797913,522.722473 769.627686,524.135559 767.032654,528.543335 
	C763.956360,533.768372 765.184814,541.203735 769.668640,544.874756 
	C774.000061,548.420898 780.546875,547.516846 786.111206,542.103027 
M978.938354,544.462219 
	C979.945007,543.109070 980.951660,541.755920 981.958252,540.402771 
	C981.578979,539.907898 981.199646,539.412964 980.820374,538.918091 
	C979.206116,539.799988 977.458130,540.503967 976.002747,541.597351 
	C971.698914,544.830994 966.549011,542.938049 965.203247,536.889343 
	C969.912170,536.889343 974.489258,536.865906 979.065918,536.898254 
	C981.718140,536.916992 983.131470,535.900024 982.803406,533.018982 
	C982.098694,526.830200 975.608765,522.051575 969.485046,523.319092 
	C964.652100,524.319397 961.375671,527.107117 960.478455,532.053223 
	C959.609070,536.845947 960.212402,541.430359 964.494202,544.541138 
	C968.948486,547.777161 973.662476,547.858459 978.938354,544.462219 
M680.422913,545.930725 
	C682.196472,544.196838 683.970032,542.462952 685.743591,540.729004 
	C685.341431,540.152222 684.939209,539.575378 684.537048,538.998535 
	C682.906616,539.812927 681.352295,540.911560 679.627502,541.373474 
	C677.179565,542.029175 674.507019,542.794861 672.123352,542.386902 
	C670.688660,542.141296 669.620239,539.756165 668.387268,538.332458 
	C668.677307,537.848877 668.967346,537.365234 669.257385,536.881592 
	C673.357910,536.881592 677.483826,536.596619 681.551880,536.960022 
	C685.806580,537.340088 686.433167,535.242798 685.861938,531.877502 
	C685.035034,527.006165 681.978943,524.301086 677.283691,523.345825 
	C672.648560,522.402832 667.579773,524.714355 665.311707,528.719055 
	C662.554932,533.586487 662.926758,538.496826 666.175049,542.779602 
	C669.602600,547.298706 674.581604,547.627319 680.422913,545.930725 
M824.980713,526.531494 
	C823.895081,525.703491 822.912781,524.431274 821.700134,524.149231 
	C819.774475,523.701233 817.599915,524.278748 815.697693,523.782349 
	C809.007324,522.036682 803.087769,525.620178 801.565613,532.599854 
	C800.173279,538.984192 804.659607,546.374817 810.813171,546.726746 
	C815.364502,546.987061 819.989685,545.956909 824.977356,545.462524 
	C824.977356,539.576660 824.977356,533.455322 824.980713,526.531494 
M643.395264,538.463013 
	C643.408936,536.632874 643.444824,534.802490 643.431763,532.972595 
	C643.402710,528.903259 645.835571,527.420959 649.459778,527.322327 
	C653.087524,527.223572 655.077942,529.033691 655.159363,532.707397 
	C655.233032,536.033630 655.350647,539.369263 655.184204,542.687500 
	C654.999573,546.370728 656.494080,547.145813 659.947510,545.655762 
	C659.947510,542.242676 659.948792,538.772705 659.946716,535.302673 
	C659.946106,534.304321 660.008850,533.299316 659.918213,532.308716 
	C659.295349,525.500671 653.775757,521.889648 647.133606,523.793457 
	C645.829773,524.167114 644.234924,524.422791 643.015015,524.014099 
	C640.045593,523.019348 639.053345,524.149048 639.055542,526.923584 
	C639.059875,532.414734 639.141602,537.907532 639.029968,543.396362 
	C638.960510,546.812744 640.651245,546.786499 643.395020,545.860107 
	C643.395020,543.657227 643.395020,541.521362 643.395264,538.463013 
M877.979431,541.276978 
	C877.979431,535.547119 877.979431,529.817200 877.979431,524.170471 
	C874.791931,524.170471 872.342285,524.677124 870.208008,524.071899 
	C864.650146,522.495728 860.514832,523.362793 857.212646,527.455688 
	C854.209106,531.178406 853.985046,537.662231 856.709839,542.007751 
	C859.318970,546.168823 863.815247,547.705933 869.383423,546.408875 
	C870.785706,546.082214 872.494568,545.332947 873.608948,545.818604 
	C877.805603,547.647644 878.201172,545.436707 877.979431,541.276978 
M746.741150,398.418671 
	C740.336670,400.384369 737.251343,404.732483 738.923035,409.436737 
	C740.556030,414.032043 744.746033,416.644501 749.437988,415.544342 
	C753.669617,414.552155 755.738098,411.607483 755.690552,407.188477 
	C755.636780,402.194427 753.058960,399.384979 746.741150,398.418671 
M899.926819,534.479614 
	C899.926819,532.368042 899.926819,530.256470 899.926819,528.889526 
	C902.139038,527.538147 903.667053,526.604736 905.195129,525.671326 
	C903.716003,524.736328 902.236938,523.801270 900.200623,522.513977 
	C900.120422,521.988098 900.272522,520.468445 899.617615,519.487793 
	C899.094482,518.704407 896.694275,518.133179 896.649597,518.223328 
	C895.337585,520.866821 892.493164,524.949951 893.378235,526.084229 
	C896.425476,529.989685 895.109558,534.024597 895.233093,537.947205 
	C895.466797,545.370850 897.680115,547.342651 905.917236,545.698120 
	C903.360779,542.392822 897.588501,540.922974 899.926819,534.479614 
M831.185181,538.762573 
	C831.154114,545.190735 833.365234,548.434570 842.810913,544.601379 
	C831.134705,542.087524 836.833191,534.073242 835.577942,528.802856 
	C837.862305,527.441772 839.518677,526.454895 841.174988,525.468018 
	C839.553406,524.657593 837.931763,523.847168 835.900085,522.831848 
	C835.623108,521.593567 835.205078,519.724792 834.787048,517.855957 
	C834.286316,517.657043 833.785522,517.458130 833.284729,517.259216 
	C831.679260,520.089233 830.073730,522.919189 828.468262,525.749207 
	C828.959839,525.769836 829.451477,525.790527 829.943054,525.811157 
	C830.336487,529.840698 830.729858,533.870178 831.185181,538.762573 
M913.730713,533.569458 
	C913.726379,531.085938 913.883911,528.585388 913.625610,526.128601 
	C913.540771,525.321716 912.377747,524.628174 911.707764,523.882812 
	C911.062256,524.647827 909.877625,525.398621 909.856995,526.180115 
	C909.699768,532.136536 909.702332,538.100647 909.848267,544.057617 
	C909.868042,544.867065 910.959167,545.650269 911.554199,546.445496 
	C912.278748,545.620972 913.556458,544.841736 913.628357,543.963745 
	C913.884277,540.838806 913.729736,537.680176 913.730713,533.569458 
z"/>
<path fill="#3681CC" opacity="1.000000" stroke="none" 
	d="
M286.550537,487.290771 
	C289.456726,492.136200 292.201233,496.654602 295.630554,502.300385 
	C290.228943,502.300385 285.802643,502.651337 281.490753,502.102722 
	C280.055664,501.920135 278.645721,499.590485 277.681854,497.970184 
	C271.487885,487.557831 265.442596,477.057159 259.298431,466.614960 
	C257.580505,463.695221 246.521881,462.074829 244.434464,464.570679 
	C243.612244,465.553802 243.496475,467.333832 243.484116,468.754700 
	C243.404526,477.910828 243.089981,487.086792 243.576355,496.217682 
	C243.861450,501.569611 241.932312,503.055695 237.059982,502.417389 
	C234.977280,502.144592 232.829086,502.371765 230.452362,502.371765 
	C230.352753,500.313995 230.220764,498.850647 230.220139,497.387238 
	C230.207977,469.084320 230.284668,440.781036 230.128860,412.478973 
	C230.106506,408.417358 231.136475,406.872742 235.398758,407.087250 
	C247.666885,407.704742 260.067139,407.082397 272.199280,408.635651 
	C284.945953,410.267578 293.438171,420.777496 294.386749,433.260742 
	C295.320465,445.548706 288.015900,457.270874 276.314850,461.314087 
	C272.514893,462.627136 272.448669,463.850464 274.352112,466.872162 
	C278.512177,473.476257 282.393616,480.255829 286.550537,487.290771 
M264.165314,417.788574 
	C258.519409,417.758881 252.872818,417.772003 247.227951,417.680054 
	C244.698715,417.638885 243.013489,418.337341 243.018570,421.241241 
	C243.035110,430.707855 242.888977,440.178497 243.178162,449.636230 
	C243.215576,450.859955 245.404190,452.994690 246.658157,453.041229 
	C253.284042,453.287109 259.953461,453.310516 266.561707,452.806702 
	C272.811127,452.330231 277.372589,448.934143 279.760712,442.960724 
	C284.718536,430.559418 278.866821,420.575195 264.165314,417.788574 
z"/>
<path fill="#337FCC" opacity="1.000000" stroke="none" 
	d="
M845.628784,443.004272 
	C845.628601,462.925903 845.628601,482.348663 845.628601,502.109497 
	C841.414124,502.109497 836.973022,503.375397 834.458862,501.718109 
	C832.361023,500.335236 832.521301,495.526733 831.497498,491.514252 
	C822.706665,501.281189 811.865601,505.308502 799.232971,503.273895 
	C791.145630,501.971313 784.186096,498.066071 778.877197,491.647858 
	C765.848633,475.896759 766.463745,450.751251 780.186340,436.230042 
	C792.799805,422.882599 811.624023,423.181030 831.639465,437.222321 
	C831.941406,436.673340 832.423523,436.176147 832.482056,435.633301 
	C833.386353,427.243713 833.373718,427.237000 841.919617,427.386566 
	C842.898987,427.403687 843.876648,427.521362 845.629028,427.648621 
	C845.629028,432.653168 845.629028,437.579315 845.628784,443.004272 
M784.161682,474.968506 
	C788.733521,486.634430 796.347473,492.217987 807.674805,492.211426 
	C818.838440,492.204956 827.548462,486.833282 830.806213,476.051453 
	C832.555420,470.262238 832.670898,463.568054 831.873047,457.499207 
	C829.660950,440.672546 809.288330,431.693512 794.887695,440.731140 
	C784.275452,447.391235 780.035522,460.397552 784.161682,474.968506 
z"/>
<path fill="#3681CC" opacity="1.000000" stroke="none" 
	d="
M317.935699,492.082428 
	C304.146454,474.475769 304.962555,449.118134 319.910187,435.473755 
	C338.409851,418.587067 372.919220,424.202332 379.870483,451.441925 
	C380.958679,455.706238 380.966461,460.244263 381.501099,464.652405 
	C381.984131,468.635193 380.146088,469.818848 376.302460,469.782410 
	C360.154877,469.629211 344.005005,469.712311 327.855957,469.721436 
	C321.320160,469.725159 320.704803,470.654449 322.925659,477.041931 
	C326.013977,485.924255 332.413544,491.061584 341.542633,492.200287 
	C350.989197,493.378632 359.453705,491.445038 364.602814,482.161255 
	C366.280945,479.135590 375.621429,477.010010 378.304199,479.112518 
	C379.011108,479.666473 379.085205,481.827423 378.643066,482.925568 
	C373.619507,495.402527 363.811676,501.818115 350.911224,503.415863 
	C338.388306,504.966888 327.170074,501.686218 317.935699,492.082428 
M341.940216,437.173889 
	C330.309265,437.824768 320.604156,449.970917 322.505066,458.976379 
	C337.463348,458.976379 352.483002,458.976379 368.291351,458.976379 
	C367.825317,456.163818 367.798126,453.667328 366.980194,451.464417 
	C363.293549,441.535339 355.917999,437.253693 341.940216,437.173889 
z"/>
<path fill="#1971D2" opacity="1.000000" stroke="none" 
	d="
M84.068665,366.798492 
	C85.432289,366.626770 86.795921,366.455078 88.653763,366.729797 
	C94.199661,370.456543 96.250618,374.612701 91.521561,381.273254 
	C90.547874,382.644653 90.152313,384.628784 90.039253,386.366211 
	C89.814156,389.825592 89.968048,393.309814 89.969490,396.783752 
	C89.972748,404.621704 90.249420,404.906006 97.984650,405.399200 
	C97.998604,407.167511 98.013115,408.588531 97.998749,410.409607 
	C97.966209,411.077026 97.962555,411.344360 97.527298,411.640381 
	C91.121361,411.742859 85.146721,411.798279 79.172768,411.895569 
	C72.790375,411.999420 71.965973,412.731445 71.954468,419.064728 
	C71.903191,447.285278 71.871880,475.506073 71.994804,503.726105 
	C72.004089,505.857269 73.276520,507.982880 74.010300,510.487915 
	C74.414200,512.690491 74.769592,514.516235 75.168388,516.564941 
	C72.250771,515.956726 70.078110,515.503845 67.905449,515.050903 
	C67.313698,514.530518 66.721954,514.010193 66.093033,512.781494 
	C65.699097,509.457916 65.359207,506.840179 64.980980,504.227966 
	C64.575531,501.427734 63.801376,498.943817 60.240158,498.957153 
	C55.577263,498.974640 50.898781,498.760284 46.260303,499.100037 
	C44.761398,499.209839 43.367435,500.752197 41.925461,501.639221 
	C38.647610,505.916046 33.554039,506.646912 29.429005,503.432373 
	C25.583595,500.435699 25.041323,494.128113 28.270809,489.959961 
	C31.225109,486.146851 37.068649,485.114532 40.674915,488.478149 
	C46.790512,494.182312 53.919788,490.852112 60.601784,491.268158 
	C61.230835,491.307343 62.568974,489.081940 62.611591,487.873840 
	C62.822895,481.884003 62.671028,475.882324 62.728310,469.885590 
	C62.754478,467.146027 61.515541,465.950317 58.797493,465.996674 
	C54.633774,466.067719 50.458450,465.865875 46.308395,466.116577 
	C44.795513,466.207916 43.002476,466.908783 41.921829,467.942627 
	C38.416149,471.296387 34.646389,471.985199 30.610981,469.410278 
	C26.737600,466.938782 25.202072,463.285675 26.984806,458.214233 
	C32.031563,452.326569 36.247868,451.911072 41.533501,455.992096 
	C42.968246,457.099854 45.003204,457.846252 46.815140,457.966278 
	C51.105816,458.250397 55.435440,457.902954 59.735111,458.108307 
	C63.340538,458.280487 64.994484,456.762451 64.995689,453.246033 
	C64.997665,447.444916 65.051666,441.643097 64.980034,435.842896 
	C64.931664,431.925232 63.293842,429.650055 58.896690,429.926666 
	C55.099438,430.165558 51.252365,429.731354 47.472801,430.083191 
	C45.539707,430.263184 43.706303,431.513916 41.827835,432.280701 
	C41.827831,432.280670 41.704021,432.664917 41.200943,432.856018 
	C33.482140,435.868439 31.626366,435.448944 27.039873,429.959534 
	C26.906981,427.893372 26.774088,425.827209 27.078178,423.300354 
	C27.701214,422.390808 27.887262,421.941956 28.073318,421.493073 
	C28.300398,421.122070 28.527470,420.751038 29.320841,420.195251 
	C30.937708,419.357605 31.988277,418.704742 33.038845,418.051880 
	C34.444435,417.912567 35.850025,417.773224 37.738129,418.087250 
	C39.226322,419.086823 40.231998,419.633057 41.237679,420.179260 
	C41.237682,420.179260 41.656288,420.400848 41.879295,420.921661 
	C46.351555,422.298401 50.575447,423.694611 54.855450,423.895477 
	C63.239613,424.289001 63.252548,424.013214 64.848289,416.029663 
	C66.403046,408.251160 69.338440,405.731781 77.497559,404.967804 
	C80.345512,404.701141 83.971642,404.219421 83.764328,400.691132 
	C83.345634,393.565155 86.716454,385.904694 80.442184,379.414551 
	C77.418190,376.286499 78.648056,371.898560 82.134781,368.952881 
	C82.864937,368.335999 83.428391,367.521790 84.068665,366.798492 
z"/>
<path fill="#3681CC" opacity="1.000000" stroke="none" 
	d="
M551.238525,465.000366 
	C551.238220,476.160339 551.098633,486.823090 551.315430,497.478638 
	C551.390808,501.186981 550.209778,502.686188 546.496277,502.409363 
	C543.870605,502.213593 541.218628,502.371429 538.365601,502.371429 
	C537.909790,499.802643 537.526245,497.640717 537.028137,494.833405 
	C535.253662,495.884033 533.939087,496.493103 532.816833,497.353119 
	C522.086182,505.576630 510.369110,505.554962 498.940643,499.985474 
	C488.036957,494.671722 483.743530,484.551544 483.590240,472.783966 
	C483.397247,457.970642 483.543701,443.152863 483.543701,427.402344 
	C487.163971,427.402344 490.627472,427.039093 493.927002,427.615173 
	C494.968842,427.797119 496.244537,430.482178 496.269073,432.039642 
	C496.462982,444.362183 496.310242,456.689667 496.412476,469.014404 
	C496.462585,475.055389 497.014282,481.102814 501.445160,485.800751 
	C508.065338,492.819885 516.330261,493.498199 524.896667,490.753418 
	C533.610535,487.961334 537.330505,480.897675 537.592773,472.325714 
	C538.000244,459.012665 537.903809,445.676697 537.676575,432.356293 
	C537.607788,428.323578 538.907471,426.885040 542.777344,427.337372 
	C544.256226,427.510284 545.777405,427.448425 547.270081,427.351471 
	C550.311584,427.153839 551.317017,428.533051 551.283875,431.521606 
	C551.161926,442.513306 551.237793,453.507233 551.238525,465.000366 
z"/>
<path fill="#3681CC" opacity="1.000000" stroke="none" 
	d="
M464.575867,455.256897 
	C464.588715,471.016449 464.588715,486.307098 464.588715,502.370239 
	C461.580139,502.370239 458.956055,502.183380 456.369507,502.415131 
	C452.708252,502.743195 451.416718,501.459167 451.476990,497.645844 
	C451.684906,484.487091 451.626404,471.322418 451.522400,458.161133 
	C451.456055,449.764709 448.750732,442.476807 440.366516,439.227783 
	C425.825806,433.593048 411.049347,440.543213 410.505402,457.510742 
	C410.094574,470.326660 410.406036,483.165771 410.396515,495.994537 
	C410.395142,497.813568 410.396301,499.632629 410.396301,502.327667 
	C406.663452,502.327667 403.218353,502.580902 399.854919,502.168396 
	C398.886749,502.049683 397.427795,500.016937 397.420471,498.854095 
	C397.278259,476.196259 397.343689,453.537201 397.284882,430.878601 
	C397.278198,428.296875 398.233276,427.151398 400.793762,427.366394 
	C400.959137,427.380310 401.127106,427.373108 401.293396,427.365692 
	C409.572113,426.996826 409.572113,426.996704 411.047699,435.298828 
	C422.866272,424.998138 435.861084,422.735504 449.759644,429.823669 
	C459.773315,434.930542 463.651642,444.077393 464.575867,455.256897 
z"/>
<path fill="#3681CC" opacity="1.000000" stroke="none" 
	d="
M933.636108,471.000488 
	C933.636047,480.162109 933.484558,488.827850 933.708984,497.483795 
	C933.802429,501.086365 932.882141,502.906525 929.006714,502.393860 
	C927.860779,502.242279 926.661865,502.246033 925.514771,502.393341 
	C921.630188,502.892181 920.317566,501.416321 920.393372,497.384094 
	C920.637512,484.396027 920.407715,471.399933 920.498291,458.407898 
	C920.614746,441.708374 906.770142,433.151825 890.711365,439.322693 
	C882.944946,442.307037 879.701660,448.826599 879.513306,456.658600 
	C879.197144,469.810486 879.113159,482.982330 879.493042,496.129517 
	C879.642273,501.295837 878.129761,503.123932 873.098572,502.420563 
	C871.008728,502.128387 868.844055,502.372070 866.399048,502.372070 
	C866.399048,477.259155 866.399048,452.695526 866.399048,428.160736 
	C876.038696,425.682587 878.284424,426.776306 879.849121,433.952332 
	C885.233398,431.616638 890.551941,428.577454 896.272705,426.967194 
	C912.454407,422.412384 932.242065,432.592407 933.413452,454.516846 
	C933.697510,459.833557 933.573059,465.172119 933.636108,471.000488 
z"/>
<path fill="#337FCC" opacity="1.000000" stroke="none" 
	d="
M581.418945,502.322937 
	C578.024902,502.345459 575.064331,502.345459 571.707458,502.345459 
	C571.707458,477.305420 571.707458,452.768585 571.707458,427.804077 
	C575.554688,427.804077 579.416931,427.804077 583.533386,427.804077 
	C583.776672,430.016876 584.006470,432.106476 584.342834,435.165222 
	C586.221924,433.980499 587.680847,433.188812 589.000122,432.209106 
	C602.816895,421.948547 623.820496,424.601685 632.944702,438.247650 
	C635.534790,442.121460 637.833435,447.025452 637.994995,451.538300 
	C638.589661,468.148712 638.231079,484.793274 638.231079,501.890656 
	C634.347717,501.890656 630.501831,501.890656 626.082825,501.890656 
	C626.082825,489.586121 626.207397,477.471893 626.017578,465.362579 
	C625.947876,460.915283 625.440430,456.420593 624.597290,452.050842 
	C622.802734,442.749695 616.048645,437.628448 605.988647,437.494781 
	C594.794434,437.346039 587.492737,442.235687 585.506653,451.716675 
	C584.561890,456.226929 584.080017,460.898804 583.986023,465.509613 
	C583.769043,476.159637 584.003357,486.818542 583.824585,497.469971 
	C583.797363,499.090698 582.540588,500.690796 581.418945,502.322937 
z"/>
<path fill="#3681CC" opacity="1.000000" stroke="none" 
	d="
M668.019592,454.690094 
	C666.242554,464.268494 666.171326,473.289032 670.731934,481.804108 
	C678.579346,496.455872 703.932007,496.133820 709.790100,481.141266 
	C710.326538,479.768250 712.676392,478.523285 714.333740,478.292389 
	C717.546143,477.844849 720.865051,478.161591 724.231689,478.161591 
	C721.837036,494.129272 706.023376,504.743286 687.233704,503.631287 
	C668.273804,502.509216 654.115540,487.397675 653.487061,467.612518 
	C652.750366,444.421661 665.162048,428.838196 686.398560,426.290619 
	C704.573730,424.110229 720.825195,434.470428 724.314514,450.461700 
	C717.663025,453.594086 712.402466,451.961090 708.444458,446.021362 
	C702.885986,437.679657 694.363647,436.403107 685.430176,437.711060 
	C676.979187,438.948334 671.620300,444.459167 668.678162,452.363647 
	C668.446838,452.985138 668.330811,453.649628 668.019592,454.690094 
z"/>
<path fill="#337FCC" opacity="1.000000" stroke="none" 
	d="
M966.416260,500.563354 
	C958.871582,497.390503 956.028381,491.702728 956.050537,484.174652 
	C956.091797,470.177551 956.131042,456.179138 955.931580,442.184662 
	C955.910828,440.729248 954.595398,438.600647 953.316956,438.014984 
	C951.338440,437.108643 947.400146,437.923126 946.912842,436.834869 
	C945.790833,434.328827 946.246155,431.116577 946.034973,427.771271 
	C949.508545,427.516785 952.432678,427.302551 955.967163,427.043610 
	C955.967163,421.032959 955.967163,415.115631 955.967163,408.643219 
	C959.707642,408.643219 962.869446,408.371979 965.935547,408.794617 
	C966.967834,408.936920 968.422546,410.778900 968.533691,411.953003 
	C968.877808,415.586853 968.868469,419.286957 968.616760,422.935150 
	C968.367249,426.551025 969.895142,427.615814 973.279297,427.427185 
	C977.099915,427.214264 980.944641,427.477905 984.773499,427.359680 
	C989.226074,427.222260 988.171204,430.420746 988.292786,432.914520 
	C988.418945,435.502686 988.617737,438.047638 984.683838,437.859528 
	C980.860168,437.676697 977.015564,437.946991 973.189697,437.787598 
	C970.317078,437.667908 968.708313,438.655182 968.711914,441.663635 
	C968.728088,455.159454 968.475830,468.663574 968.882263,482.147766 
	C969.106323,489.581116 971.441528,491.266754 978.923340,491.559082 
	C979.256226,491.572113 979.589783,491.565979 979.922974,491.572266 
	C989.360046,491.750671 989.360046,491.750732 987.591370,502.976746 
	C980.722351,502.213531 973.754395,501.439301 966.416260,500.563354 
z"/>
<path fill="#37D0EB" opacity="1.000000" stroke="none" 
	d="
M161.777847,382.042999 
	C161.647552,387.167175 161.582581,392.294189 161.363174,397.414551 
	C161.225021,400.638672 162.286713,402.142181 165.821091,402.492249 
	C174.711395,403.372894 179.393784,408.157562 180.406647,417.297424 
	C180.772522,420.599152 182.250687,421.678162 185.225006,421.472656 
	C191.503235,421.038940 197.917267,422.845093 203.737228,417.954865 
	C207.163025,415.076294 213.274399,417.475891 215.496353,421.183044 
	C217.999435,425.359253 217.043198,431.207916 213.339920,434.372803 
	C209.770111,437.423645 205.408783,436.645172 201.117966,433.895416 
	C198.336441,432.112915 194.418350,431.516205 190.987061,431.443176 
	C179.764648,431.204468 180.488861,430.074524 180.498001,441.808899 
	C180.500458,444.974457 180.654465,448.149750 180.458801,451.303162 
	C180.211685,455.285950 182.009109,456.614990 185.815506,456.466278 
	C192.039520,456.223083 198.220093,457.215302 203.742813,452.464966 
	C207.019913,449.646210 212.244034,451.615204 215.156464,455.415649 
	C217.446838,458.404236 217.367142,464.746216 215.003540,467.585541 
	C211.955673,471.247009 206.900208,472.875458 203.478256,469.946686 
	C197.428696,464.768951 190.590515,466.734680 183.992996,466.600037 
	C182.858261,466.576843 180.759796,468.814056 180.674438,470.110352 
	C180.303024,475.750702 180.559982,481.429779 180.488556,487.093567 
	C180.452393,489.959961 181.554749,491.459351 184.583618,491.395538 
	C188.413879,491.314819 192.282303,491.681519 196.064377,491.247009 
	C197.980804,491.026794 199.962662,489.740112 201.533356,488.465363 
	C205.626862,485.143066 210.317307,485.163574 214.083557,488.842743 
	C217.250671,491.936646 217.772583,498.777435 215.105728,502.240143 
	C212.415115,505.733704 205.962418,507.012573 202.521545,504.196075 
	C196.395294,499.181427 189.435242,501.965485 182.830917,501.717957 
	C182.098846,501.690552 180.796692,504.086761 180.568069,505.490753 
	C179.084549,514.600891 174.316132,519.540161 165.271881,520.359253 
	C162.179047,520.639343 161.133621,521.884827 161.376755,524.731750 
	C161.926010,531.163208 160.119934,537.624146 164.878296,543.794983 
	C168.655014,548.692810 164.332596,555.223511 157.402283,556.056641 
	C164.407333,549.693054 164.498734,548.959106 159.680054,539.941711 
	C159.164291,538.976562 159.015762,537.724854 158.996033,536.600830 
	C158.919983,532.269470 159.032547,527.934692 158.945129,523.603760 
	C158.871109,519.937378 160.364883,518.164917 164.202713,517.922668 
	C172.906219,517.373352 176.312561,513.293213 177.232391,504.333038 
	C177.459396,502.121796 180.007126,500.072906 181.683533,498.116974 
	C182.580612,497.070343 183.894272,496.380768 185.019928,495.530029 
	C183.743393,494.639435 182.399521,493.829712 181.207626,492.837494 
	C179.743698,491.618835 177.315063,490.332794 177.205521,488.927612 
	C176.753616,483.130707 176.812881,477.267944 177.084106,471.448029 
	C177.352951,465.678589 179.361526,464.016785 185.038391,464.007111 
	C188.871140,464.000580 192.720551,463.789276 196.529831,464.087219 
	C198.531143,464.243713 200.680450,464.950409 202.380325,466.017883 
	C206.102905,468.355499 210.874451,468.702667 212.072250,465.545715 
	C213.087097,462.870972 213.044205,457.867065 211.394730,456.604706 
	C209.401016,455.078918 205.179657,456.125427 202.001602,456.594910 
	C199.544601,456.957916 197.260330,458.575867 194.808212,458.865814 
	C191.262299,459.285156 187.633621,458.979767 184.041107,459.037384 
	C180.940353,459.087097 178.730835,457.960754 178.699554,454.570679 
	C178.649460,449.139404 178.836945,443.706268 178.891769,438.273621 
	C178.975479,429.982269 178.963837,429.993317 187.466125,429.971222 
	C190.296448,429.963867 193.186203,430.201111 195.929047,429.687286 
	C197.115143,429.465057 197.997742,427.622803 199.018188,426.516449 
	C197.887405,425.683472 196.810471,424.236969 195.615753,424.132141 
	C191.977402,423.812653 188.290985,423.922119 184.628235,424.031342 
	C180.637268,424.150269 179.405411,422.250793 178.693451,418.395874 
	C178.025528,414.779358 175.643082,411.479462 173.809631,407.755859 
	C170.661392,406.326660 167.802658,404.741638 164.752502,404.159393 
	C161.626572,403.562592 159.921616,402.350433 159.917786,399.122284 
	C159.912476,394.666962 159.783966,390.204956 160.004425,385.760498 
	C160.067200,384.495117 161.158310,383.280762 161.777847,382.042999 
z"/>
<path fill="#17BAE4" opacity="1.000000" stroke="none" 
	d="
M174.015076,408.040253 
	C175.643082,411.479462 178.025528,414.779358 178.693451,418.395874 
	C179.405411,422.250793 180.637268,424.150269 184.628235,424.031342 
	C188.290985,423.922119 191.977402,423.812653 195.615753,424.132141 
	C196.810471,424.236969 197.887405,425.683472 199.018188,426.516449 
	C197.997742,427.622803 197.115143,429.465057 195.929047,429.687286 
	C193.186203,430.201111 190.296448,429.963867 187.466125,429.971222 
	C178.963837,429.993317 178.975479,429.982269 178.891769,438.273621 
	C178.836945,443.706268 178.649460,449.139404 178.699554,454.570679 
	C178.730835,457.960754 180.940353,459.087097 184.041107,459.037384 
	C187.633621,458.979767 191.262299,459.285156 194.808212,458.865814 
	C197.260330,458.575867 199.544601,456.957916 202.001602,456.594910 
	C205.179657,456.125427 209.401016,455.078918 211.394730,456.604706 
	C213.044205,457.867065 213.087097,462.870972 212.072250,465.545715 
	C210.874451,468.702667 206.102905,468.355499 202.380325,466.017883 
	C200.680450,464.950409 198.531143,464.243713 196.529831,464.087219 
	C192.720551,463.789276 188.871140,464.000580 185.038391,464.007111 
	C179.361526,464.016785 177.352951,465.678589 177.084106,471.448029 
	C176.812881,477.267944 176.753616,483.130707 177.205521,488.927612 
	C177.315063,490.332794 179.743698,491.618835 181.207626,492.837494 
	C182.399521,493.829712 183.743393,494.639435 185.019928,495.530029 
	C183.894272,496.380768 182.580612,497.070343 181.683533,498.116974 
	C180.007126,500.072906 177.459396,502.121796 177.232391,504.333038 
	C176.312561,513.293213 172.906219,517.373352 164.202713,517.922668 
	C160.364883,518.164917 158.871109,519.937378 158.945129,523.603760 
	C159.032547,527.934692 158.919983,532.269470 158.996033,536.600830 
	C159.015762,537.724854 159.164291,538.976562 159.680054,539.941711 
	C164.498734,548.959106 164.407333,549.693054 157.065598,555.904175 
	C156.232803,556.258911 155.499237,556.335510 154.307678,555.983154 
	C148.387131,551.145386 146.359283,547.329163 149.158020,544.222412 
	C153.518677,539.381897 152.981873,533.951355 152.986893,528.387207 
	C152.995285,519.097229 152.987427,519.102173 143.496765,518.872925 
	C142.673843,518.853088 141.853867,518.711182 141.128357,518.300659 
	C145.807571,516.709534 145.375397,514.147522 143.465698,510.992188 
	C150.242706,510.884674 156.559082,510.885284 162.875259,510.850403 
	C169.652634,510.812958 170.933243,509.531372 170.936752,502.587677 
	C170.950638,475.160248 171.006317,447.732361 170.819214,420.306183 
	C170.800354,417.540802 169.246490,414.785889 168.832672,412.018951 
	C172.093353,412.182159 174.207291,411.491669 174.015076,408.040253 
z"/>
<path fill="#2AA2DF" opacity="1.000000" stroke="none" 
	d="
M173.809631,407.755859 
	C174.207291,411.491669 172.093353,412.182159 168.553528,411.975861 
	C155.357132,411.945374 142.867355,411.996979 130.378052,411.942200 
	C119.571396,411.894806 108.765266,411.726562 97.958908,411.611755 
	C97.962555,411.344360 97.966209,411.077026 98.464310,410.415161 
	C106.759048,410.013000 114.563385,410.141510 122.357101,409.910919 
	C124.561081,409.845734 126.734024,408.731049 127.699493,408.451447 
	C126.405411,406.417786 124.214249,404.571625 124.350174,402.916534 
	C125.002884,394.968750 121.095917,386.611511 127.076241,379.011627 
	C129.238602,376.263641 129.160980,372.065430 125.545418,369.252747 
	C124.561844,368.487579 123.811302,367.422852 122.953819,366.495605 
	C127.064880,366.071777 129.492981,368.711243 130.171478,371.973175 
	C130.740112,374.706909 130.510025,378.581726 128.921051,380.609039 
	C123.876701,387.044891 127.112930,394.046448 126.632256,400.746124 
	C126.596359,401.246429 128.631821,402.367065 129.727142,402.398193 
	C135.715866,402.568390 141.728790,402.731232 147.692261,402.311829 
	C149.071335,402.214844 151.208664,399.954681 151.404251,398.478851 
	C151.924545,394.552551 151.701096,390.505035 151.505646,386.518860 
	C151.437073,385.120270 150.984802,383.319672 150.027664,382.458862 
	C146.051163,378.882782 145.380508,374.837250 147.993607,370.391876 
	C150.579636,365.992462 154.706314,365.390900 159.741974,367.055725 
	C160.557434,367.668610 160.941177,367.859497 161.324921,368.050354 
	C165.202805,370.122162 165.479416,373.647888 164.755402,377.841614 
	C164.224060,378.664948 164.050339,379.079865 163.876617,379.494781 
	C163.430557,380.196014 162.984497,380.897247 162.158127,381.820740 
	C161.158310,383.280762 160.067200,384.495117 160.004425,385.760498 
	C159.783966,390.204956 159.912476,394.666962 159.917786,399.122284 
	C159.921616,402.350433 161.626572,403.562592 164.752502,404.159393 
	C167.802658,404.741638 170.661392,406.326660 173.809631,407.755859 
z"/>
<path fill="#B6C730" opacity="1.000000" stroke="none" 
	d="
M753.742554,499.520081 
	C753.536865,503.615082 750.700867,502.350800 748.857727,502.365448 
	C739.036438,502.443695 740.493896,503.063660 740.470886,494.314240 
	C740.417114,473.869110 740.613770,453.421631 740.335999,432.980164 
	C740.271057,428.201111 741.844116,426.779114 746.271545,427.290253 
	C748.520752,427.549896 750.824646,427.335693 753.747925,427.335693 
	C753.747925,451.649994 753.747925,475.363281 753.742554,499.520081 
z"/>
<path fill="#2AA2DF" opacity="1.000000" stroke="none" 
	d="
M67.994652,515.396240 
	C70.078110,515.503845 72.250771,515.956726 75.168388,516.564941 
	C74.769592,514.516235 74.414200,512.690491 74.426048,510.522461 
	C76.759743,510.376221 78.723938,510.712555 80.693031,510.744171 
	C89.463776,510.885071 98.235909,510.938812 107.078346,511.383301 
	C107.469231,512.101318 107.772141,512.477417 108.112762,512.815491 
	C109.015945,513.711975 109.935425,514.592102 110.848442,515.478760 
	C109.766609,515.987854 108.656609,516.445801 107.611458,517.021545 
	C106.712814,517.516602 105.888206,518.146118 104.578308,518.797974 
	C101.353828,518.986145 98.581886,519.092529 95.809952,519.198914 
	C91.841980,518.893982 90.634842,520.926514 90.986313,524.599304 
	C91.205170,526.886353 91.184647,529.224854 90.991035,531.516663 
	C90.602654,536.113831 91.165482,540.332764 94.883377,544.231140 
	C94.896248,545.221069 94.873192,545.576050 94.622940,546.180176 
	C94.290199,547.314575 94.184639,548.199890 94.082825,549.484619 
	C94.169388,550.410095 94.252205,550.936157 94.335014,551.462158 
	C93.814301,552.270386 93.293579,553.078674 92.189911,553.976929 
	C90.747437,554.710449 89.887924,555.354004 89.028412,555.997559 
	C87.928131,556.150208 86.827858,556.302856 85.203262,556.018066 
	C82.456726,553.408630 80.234505,551.236633 78.012276,549.064636 
	C77.885048,547.927917 77.757828,546.791199 78.066437,545.151123 
	C79.037720,543.617432 79.573181,542.587219 80.108635,541.556946 
	C80.108627,541.556946 80.266388,541.200500 80.771225,541.005066 
	C81.845612,536.196411 82.751503,531.594666 82.909706,526.967407 
	C83.179825,519.066406 82.982834,519.059692 75.130432,518.994446 
	C72.781578,517.910095 70.432716,516.825806 67.994652,515.396240 
z"/>
<path fill="#22AEE2" opacity="1.000000" stroke="none" 
	d="
M105.030853,518.716125 
	C105.888206,518.146118 106.712814,517.516602 107.611458,517.021545 
	C108.656609,516.445801 109.766609,515.987854 110.848442,515.478760 
	C109.935425,514.592102 109.015945,513.711975 108.112762,512.815491 
	C107.772141,512.477417 107.469231,512.101318 107.539673,511.296814 
	C119.621788,510.928955 131.313385,511.006805 143.004974,511.084656 
	C145.375397,514.147522 145.807571,516.709534 140.671112,518.402466 
	C135.729843,519.133301 131.341644,519.436951 126.953461,519.740601 
	C126.769966,519.970459 126.586479,520.200317 125.858688,520.957764 
	C125.191254,526.574768 124.867561,531.672058 125.068932,536.748596 
	C125.128220,538.243408 126.673691,539.679138 127.538071,541.141907 
	C127.538078,541.141907 127.782852,541.163696 127.911415,541.616211 
	C130.569397,546.386230 129.761276,550.399475 126.931587,554.228455 
	C126.763321,554.385681 126.595062,554.542908 125.840286,554.833008 
	C124.857315,555.264404 124.460869,555.562866 124.064423,555.861450 
	C122.230911,555.881409 120.397408,555.901306 118.077881,555.546021 
	C117.326439,555.002014 117.035431,554.915588 116.718826,554.911499 
	C115.954910,554.292236 115.190987,553.672913 114.173256,552.392456 
	C113.976562,548.608459 114.033669,545.485718 114.090782,542.362976 
	C114.865242,541.404846 115.639702,540.446716 116.972046,539.042358 
	C117.347076,532.693481 117.164200,526.790833 116.981323,520.888184 
	C116.804214,520.772705 116.627106,520.657227 116.053741,520.020752 
	C112.115273,519.238525 108.573067,518.977356 105.030853,518.716125 
z"/>
<path fill="#3B3B3B" opacity="1.000000" stroke="none" 
	d="
M745.247742,524.035583 
	C749.279236,524.544373 752.805420,525.036804 752.971863,519.589294 
	C752.989685,519.005371 754.278198,517.991028 754.936890,518.022461 
	C755.656494,518.056702 756.634705,518.947510 756.947754,519.695984 
	C757.373840,520.714844 757.276489,521.952637 757.373657,522.826904 
	C759.208008,523.791382 760.788147,524.622253 762.368286,525.453064 
	C760.933289,526.462646 759.498352,527.472168 757.132324,529.136780 
	C757.132324,531.928833 756.868835,535.897644 757.298584,539.789917 
	C757.421875,540.906494 759.553223,541.796570 760.755432,542.800598 
	C761.443726,543.375427 762.115173,543.970581 762.794250,544.556580 
	C761.997742,545.198242 761.277588,546.246887 760.391846,546.413269 
	C755.856995,547.264648 752.992615,544.925659 752.770508,540.290222 
	C752.651062,537.796631 752.702881,535.291748 752.757935,532.793762 
	C752.813721,530.264954 753.112915,527.105347 749.883423,526.976318 
	C748.529480,526.922302 746.548462,529.667725 745.724915,531.526855 
	C742.572449,538.643860 739.851135,545.950684 736.790588,553.110413 
	C736.017273,554.919373 734.583069,556.445923 733.452515,558.102234 
	C732.899536,557.900391 732.346497,557.698486 731.793457,557.496582 
	C732.022400,555.937012 731.827820,554.135681 732.555603,552.860901 
	C735.297607,548.057983 734.746582,543.653076 732.302002,538.860046 
	C730.005371,534.357117 728.480652,529.460388 726.537231,524.536438 
	C732.412842,522.398193 731.998352,527.376587 733.295776,529.976257 
	C734.765747,532.921631 735.818787,536.075012 737.409912,540.023254 
	C740.131775,534.220459 742.499451,529.172791 745.247742,524.035583 
z"/>
<path fill="#3B3B3B" opacity="1.000000" stroke="none" 
	d="
M951.913940,544.823547 
	C951.858948,540.784973 952.077209,537.099365 951.705139,533.474304 
	C951.339844,529.915100 949.816650,527.037598 945.399902,527.329285 
	C941.205688,527.606445 940.308716,530.551758 940.119812,533.911987 
	C939.951965,536.898438 939.921387,539.910217 940.102478,542.894226 
	C940.309875,546.312378 938.834351,546.924500 935.580933,545.883850 
	C935.580933,541.675537 935.614258,537.545715 935.571045,533.416748 
	C935.531555,529.641846 933.639038,527.458130 929.805237,527.341980 
	C925.832947,527.221680 924.090515,529.695618 923.917725,533.267273 
	C923.717957,537.396973 923.871216,541.543701 923.871216,545.790527 
	C920.698792,547.011108 919.264893,546.409058 919.346985,542.972534 
	C919.474060,537.650391 919.262756,532.318237 919.478638,527.001831 
	C919.521606,525.944092 921.108887,523.945068 921.530701,524.059021 
	C926.889893,525.505981 932.890808,520.717590 937.931885,525.730652 
	C938.359070,526.155457 940.303833,525.321350 941.391724,524.771667 
	C949.286133,520.782776 955.982422,524.706543 956.098450,533.480774 
	C956.153137,537.616821 956.107788,541.754211 956.107788,546.801575 
	C954.304626,546.111816 953.116638,545.657410 951.913940,544.823547 
z"/>
<path fill="#0C80D5" opacity="1.000000" stroke="none" 
	d="
M122.600685,366.388184 
	C123.811302,367.422852 124.561844,368.487579 125.545418,369.252747 
	C129.160980,372.065430 129.238602,376.263641 127.076241,379.011627 
	C121.095917,386.611511 125.002884,394.968750 124.350174,402.916534 
	C124.214249,404.571625 126.405411,406.417786 127.699493,408.451447 
	C126.734024,408.731049 124.561081,409.845734 122.357101,409.910919 
	C114.563385,410.141510 106.759048,410.013000 98.493187,410.015106 
	C98.013115,408.588531 97.998604,407.167511 98.362411,405.383453 
	C99.495949,405.015442 100.251183,405.010437 101.473541,405.005554 
	C106.095596,405.007843 110.252594,405.083801 114.404167,404.967133 
	C115.653969,404.932007 117.972130,404.357300 117.970985,404.036316 
	C117.946030,397.057648 117.662636,390.079865 117.407654,383.102692 
	C117.406654,383.075409 117.098251,383.059357 116.933434,383.038086 
	C116.236305,382.400177 115.539169,381.762268 114.860359,380.423218 
	C114.281288,375.324158 113.186508,370.787201 118.757706,368.453583 
	C119.363174,368.200012 119.636375,367.153198 120.063698,366.474304 
	C120.791649,366.409790 121.519600,366.345276 122.600685,366.388184 
z"/>
<path fill="#3B3B3B" opacity="1.000000" stroke="none" 
	d="
M701.150757,526.076294 
	C701.149109,523.260559 700.934326,520.900696 701.243103,518.611511 
	C701.378662,517.606445 702.581177,516.745361 703.299194,515.818909 
	C704.154419,516.777893 705.511047,517.626160 705.752686,518.720642 
	C706.161316,520.571594 705.864868,522.578186 705.864868,524.458740 
	C709.679443,524.135803 712.819153,523.267212 715.739075,523.744080 
	C722.497375,524.847900 726.143066,531.223938 724.425110,537.979492 
	C722.664307,544.903564 716.797668,548.238281 709.963196,546.372070 
	C708.400208,545.945190 706.578857,545.732300 705.041016,546.103271 
	C702.161987,546.797668 701.021240,546.110779 701.099365,543.044373 
	C701.239258,537.553040 701.146118,532.055725 701.150757,526.076294 
M710.248535,542.681396 
	C711.231750,542.769958 712.222473,542.984070 713.196899,542.925720 
	C717.913757,542.643250 720.501343,539.221008 720.021179,533.996765 
	C719.580505,529.202698 716.183716,526.226929 711.601379,527.543579 
	C709.488647,528.150574 707.181152,530.380676 706.291687,532.447205 
	C704.639893,536.284607 705.930298,539.868042 710.248535,542.681396 
z"/>
<path fill="#3B3B3B" opacity="1.000000" stroke="none" 
	d="
M633.244812,539.194214 
	C626.977539,547.706360 617.273682,549.296021 610.283081,543.283997 
	C604.188110,538.042236 603.917969,527.580322 609.855469,521.417786 
	C614.100220,517.012207 619.468140,516.280579 625.012085,517.988647 
	C631.027710,519.841980 634.188843,524.468018 634.621643,530.593994 
	C634.812927,533.301331 633.827576,536.091736 633.244812,539.194214 
M610.249268,534.842102 
	C612.419006,541.257019 615.417358,543.417480 621.445374,542.909546 
	C626.221313,542.507141 629.084778,539.628967 630.105286,534.205139 
	C631.151306,528.646240 628.893799,523.995178 624.110962,521.854919 
	C616.615845,518.500916 609.786438,524.434937 610.249268,534.842102 
z"/>
<path fill="#3B3B3B" opacity="1.000000" stroke="none" 
	d="
M785.953491,542.375244 
	C780.546875,547.516846 774.000061,548.420898 769.668640,544.874756 
	C765.184814,541.203735 763.956360,533.768372 767.032654,528.543335 
	C769.627686,524.135559 773.797913,522.722473 778.524170,523.370361 
	C783.437805,524.043945 786.505920,527.192261 787.615479,532.041626 
	C788.343811,535.224426 787.536194,537.158875 783.649963,536.930420 
	C779.541809,536.688965 775.408447,536.876282 769.525208,536.876282 
	C771.228760,539.384033 771.951172,541.665833 773.144958,541.947205 
	C775.513428,542.505188 778.173889,542.162170 780.646423,541.768799 
	C781.600830,541.616943 782.269958,539.861206 783.250244,539.640381 
	C784.879639,539.273254 787.706116,538.373840 785.953491,542.375244 
M779.968933,533.222778 
	C783.057800,533.225220 783.704895,531.183228 781.782959,529.613770 
	C780.010620,528.166443 777.050476,527.368958 774.761780,527.622620 
	C773.040283,527.813293 771.553406,530.120605 769.962097,531.485718 
	C770.273926,532.065796 770.585693,532.645874 770.897522,533.225952 
	C773.628479,533.225952 776.359375,533.225952 779.968933,533.222778 
z"/>
<path fill="#3B3B3B" opacity="1.000000" stroke="none" 
	d="
M978.649353,544.671143 
	C973.662476,547.858459 968.948486,547.777161 964.494202,544.541138 
	C960.212402,541.430359 959.609070,536.845947 960.478455,532.053223 
	C961.375671,527.107117 964.652100,524.319397 969.485046,523.319092 
	C975.608765,522.051575 982.098694,526.830200 982.803406,533.018982 
	C983.131470,535.900024 981.718140,536.916992 979.065918,536.898254 
	C974.489258,536.865906 969.912170,536.889343 965.203247,536.889343 
	C966.549011,542.938049 971.698914,544.830994 976.002747,541.597351 
	C977.458130,540.503967 979.206116,539.799988 980.820374,538.918091 
	C981.199646,539.412964 981.578979,539.907898 981.958252,540.402771 
	C980.951660,541.755920 979.945007,543.109070 978.649353,544.671143 
M965.052856,531.713684 
	C969.113770,535.246216 973.451294,532.630737 978.057922,532.165344 
	C976.696777,529.991211 975.127686,528.111206 973.151184,527.450806 
	C969.784546,526.326050 966.961853,527.721619 965.052856,531.713684 
z"/>
<path fill="#3B3B3B" opacity="1.000000" stroke="none" 
	d="
M680.094055,546.088196 
	C674.581604,547.627319 669.602600,547.298706 666.175049,542.779602 
	C662.926758,538.496826 662.554932,533.586487 665.311707,528.719055 
	C667.579773,524.714355 672.648560,522.402832 677.283691,523.345825 
	C681.978943,524.301086 685.035034,527.006165 685.861938,531.877502 
	C686.433167,535.242798 685.806580,537.340088 681.551880,536.960022 
	C677.483826,536.596619 673.357910,536.881592 669.257385,536.881592 
	C668.967346,537.365234 668.677307,537.848877 668.387268,538.332458 
	C669.620239,539.756165 670.688660,542.141296 672.123352,542.386902 
	C674.507019,542.794861 677.179565,542.029175 679.627502,541.373474 
	C681.352295,540.911560 682.906616,539.812927 684.537048,538.998535 
	C684.939209,539.575378 685.341431,540.152222 685.743591,540.729004 
	C683.970032,542.462952 682.196472,544.196838 680.094055,546.088196 
M676.134033,533.340088 
	C677.941956,533.073853 679.749878,532.807617 681.769043,532.510254 
	C679.920227,527.431580 676.583191,526.303833 672.715332,527.664001 
	C670.962646,528.280334 669.773499,530.499268 668.328674,531.991150 
	C668.680542,532.440613 669.032410,532.890137 669.384277,533.339600 
	C671.353699,533.339600 673.323181,533.339600 676.134033,533.340088 
z"/>
<path fill="#3B3B3B" opacity="1.000000" stroke="none" 
	d="
M824.979004,526.932739 
	C824.977356,533.455322 824.977356,539.576660 824.977356,545.462524 
	C819.989685,545.956909 815.364502,546.987061 810.813171,546.726746 
	C804.659607,546.374817 800.173279,538.984192 801.565613,532.599854 
	C803.087769,525.620178 809.007324,522.036682 815.697693,523.782349 
	C817.599915,524.278748 819.774475,523.701233 821.700134,524.149231 
	C822.912781,524.431274 823.895081,525.703491 824.979004,526.932739 
M812.741211,542.949646 
	C817.920654,542.568359 821.623840,538.292114 820.752441,533.698608 
	C819.886841,529.135742 815.392761,525.839905 811.230774,527.746948 
	C808.932495,528.799988 806.735352,531.993103 806.217285,534.568359 
	C805.413940,538.562012 807.254517,542.021545 812.741211,542.949646 
z"/>
<path fill="#3B3B3B" opacity="1.000000" stroke="none" 
	d="
M643.395142,538.924255 
	C643.395020,541.521362 643.395020,543.657227 643.395020,545.860107 
	C640.651245,546.786499 638.960510,546.812744 639.029968,543.396362 
	C639.141602,537.907532 639.059875,532.414734 639.055542,526.923584 
	C639.053345,524.149048 640.045593,523.019348 643.015015,524.014099 
	C644.234924,524.422791 645.829773,524.167114 647.133606,523.793457 
	C653.775757,521.889648 659.295349,525.500671 659.918213,532.308716 
	C660.008850,533.299316 659.946106,534.304321 659.946716,535.302673 
	C659.948792,538.772705 659.947510,542.242676 659.947510,545.655762 
	C656.494080,547.145813 654.999573,546.370728 655.184204,542.687500 
	C655.350647,539.369263 655.233032,536.033630 655.159363,532.707397 
	C655.077942,529.033691 653.087524,527.223572 649.459778,527.322327 
	C645.835571,527.420959 643.402710,528.903259 643.431763,532.972595 
	C643.444824,534.802490 643.408936,536.632874 643.395142,538.924255 
z"/>
<path fill="#3B3B3B" opacity="1.000000" stroke="none" 
	d="
M877.979370,541.745911 
	C878.201172,545.436707 877.805603,547.647644 873.608948,545.818604 
	C872.494568,545.332947 870.785706,546.082214 869.383423,546.408875 
	C863.815247,547.705933 859.318970,546.168823 856.709839,542.007751 
	C853.985046,537.662231 854.209106,531.178406 857.212646,527.455688 
	C860.514832,523.362793 864.650146,522.495728 870.208008,524.071899 
	C872.342285,524.677124 874.791931,524.170471 877.979431,524.170471 
	C877.979431,529.817200 877.979431,535.547119 877.979370,541.745911 
M860.503601,539.852173 
	C863.218201,543.725342 866.835693,543.879517 870.548401,541.825378 
	C873.729004,540.065735 874.754272,534.856689 872.931946,531.214844 
	C871.069519,527.492859 867.900208,526.569275 864.110718,527.635864 
	C859.606628,528.903503 858.238098,532.977722 860.503601,539.852173 
z"/>
<path fill="#B6C730" opacity="1.000000" stroke="none" 
	d="
M747.121033,398.416443 
	C753.058960,399.384979 755.636780,402.194427 755.690552,407.188477 
	C755.738098,411.607483 753.669617,414.552155 749.437988,415.544342 
	C744.746033,416.644501 740.556030,414.032043 738.923035,409.436737 
	C737.251343,404.732483 740.336670,400.384369 747.121033,398.416443 
z"/>
<path fill="#3B3B3B" opacity="1.000000" stroke="none" 
	d="
M899.926575,534.984070 
	C897.588501,540.922974 903.360779,542.392822 905.917236,545.698120 
	C897.680115,547.342651 895.466797,545.370850 895.233093,537.947205 
	C895.109558,534.024597 896.425476,529.989685 893.378235,526.084229 
	C892.493164,524.949951 895.337585,520.866821 896.649597,518.223328 
	C896.694275,518.133179 899.094482,518.704407 899.617615,519.487793 
	C900.272522,520.468445 900.120422,521.988098 900.200623,522.513977 
	C902.236938,523.801270 903.716003,524.736328 905.195129,525.671265 
	C903.667053,526.604736 902.139038,527.538147 899.926819,528.889526 
	C899.926819,530.256470 899.926819,532.368042 899.926575,534.984070 
z"/>
<path fill="#3681CC" opacity="1.000000" stroke="none" 
	d="
M83.751060,366.666626 
	C83.428391,367.521790 82.864937,368.335999 82.134781,368.952881 
	C78.648056,371.898560 77.418190,376.286499 80.442184,379.414551 
	C86.716454,385.904694 83.345634,393.565155 83.764328,400.691132 
	C83.971642,404.219421 80.345512,404.701141 77.497559,404.967804 
	C69.338440,405.731781 66.403046,408.251160 64.848289,416.029663 
	C63.252548,424.013214 63.239613,424.289001 54.855450,423.895477 
	C50.575447,423.694611 46.351555,422.298401 41.958111,421.144989 
	C47.417202,421.103241 53.029701,421.621552 58.617115,421.425354 
	C59.969582,421.377838 62.162113,419.117920 62.398014,417.626892 
	C63.995941,407.527008 67.546165,403.699066 77.635788,402.573242 
	C80.558762,402.247070 81.894905,401.024750 81.681427,398.176575 
	C81.201668,391.775604 83.046280,385.283051 78.216560,379.234009 
	C74.773216,374.921295 77.805641,369.092682 83.751060,366.666626 
z"/>
<path fill="#3B3B3B" opacity="1.000000" stroke="none" 
	d="
M831.154175,538.331116 
	C830.729858,533.870178 830.336487,529.840698 829.943054,525.811157 
	C829.451477,525.790527 828.959839,525.769836 828.468262,525.749207 
	C830.073730,522.919189 831.679260,520.089233 833.284729,517.259216 
	C833.785522,517.458130 834.286316,517.657043 834.787048,517.855957 
	C835.205078,519.724792 835.623108,521.593567 835.900085,522.831848 
	C837.931763,523.847168 839.553406,524.657593 841.174988,525.468018 
	C839.518677,526.454895 837.862305,527.441772 835.577942,528.802856 
	C836.833191,534.073242 831.134705,542.087524 842.810913,544.601379 
	C833.365234,548.434570 831.154114,545.190735 831.154175,538.331116 
z"/>
<path fill="#3681CC" opacity="1.000000" stroke="none" 
	d="
M42.248638,432.270050 
	C43.706303,431.513916 45.539707,430.263184 47.472801,430.083191 
	C51.252365,429.731354 55.099438,430.165558 58.896690,429.926666 
	C63.293842,429.650055 64.931664,431.925232 64.980034,435.842896 
	C65.051666,441.643097 64.997665,447.444916 64.995689,453.246033 
	C64.994484,456.762451 63.340538,458.280487 59.735111,458.108307 
	C55.435440,457.902954 51.105816,458.250397 46.815140,457.966278 
	C45.003204,457.846252 42.968246,457.099854 41.533501,455.992096 
	C36.247868,451.911072 32.031563,452.326569 27.294823,457.889343 
	C28.743328,451.629730 35.652988,449.126099 40.831963,453.503540 
	C46.906754,458.638184 53.788891,455.962463 60.351433,456.177368 
	C61.036247,456.199799 62.375801,453.705841 62.433743,452.337982 
	C62.672043,446.712097 62.707024,441.060944 62.410458,435.440552 
	C62.335400,434.017975 60.771358,431.495270 59.872131,431.486603 
	C54.140930,431.431213 48.404289,431.937866 42.248638,432.270050 
z"/>
<path fill="#37D0EB" opacity="1.000000" stroke="none" 
	d="
M127.358459,520.001160 
	C131.341644,519.436951 135.729843,519.133301 140.575287,518.727783 
	C141.853867,518.711182 142.673843,518.853088 143.496765,518.872925 
	C152.987427,519.102173 152.995285,519.097229 152.986893,528.387207 
	C152.981873,533.951355 153.518677,539.381897 149.158020,544.222412 
	C146.359283,547.329163 148.387131,551.145386 153.969498,555.821167 
	C151.692551,554.440247 148.145920,553.269531 147.210663,551.015259 
	C146.201569,548.583008 146.544968,544.157898 148.202545,542.312134 
	C153.800430,536.078552 150.694061,529.016418 151.086395,522.335938 
	C151.118439,521.790405 148.560486,520.602478 147.172958,520.547546 
	C140.709488,520.291565 134.234406,520.329163 127.358459,520.001160 
z"/>
<path fill="#3681CC" opacity="1.000000" stroke="none" 
	d="
M101.006409,405.005432 
	C100.251183,405.010437 99.495949,405.015442 98.362961,405.036194 
	C90.249420,404.906006 89.972748,404.621704 89.969490,396.783752 
	C89.968048,393.309814 89.814156,389.825592 90.039253,386.366211 
	C90.152313,384.628784 90.547874,382.644653 91.521561,381.273254 
	C96.250618,374.612701 94.199661,370.456543 89.048767,366.879456 
	C95.901573,368.356262 99.130890,375.610840 94.555534,380.426147 
	C91.624619,383.510803 91.090927,386.600037 91.259712,390.317963 
	C91.289848,390.981873 91.263092,391.648346 91.262680,392.313629 
	C91.256699,401.913055 91.256706,401.913055 100.662140,403.403229 
	C100.973541,404.305634 100.989975,404.655518 101.006409,405.005432 
z"/>
<path fill="#3B3B3B" opacity="1.000000" stroke="none" 
	d="
M913.730713,534.051880 
	C913.729736,537.680176 913.884277,540.838806 913.628357,543.963745 
	C913.556458,544.841736 912.278748,545.620972 911.554199,546.445557 
	C910.959167,545.650269 909.868042,544.867065 909.848267,544.057617 
	C909.702332,538.100647 909.699768,532.136536 909.856995,526.180115 
	C909.877625,525.398621 911.062256,524.647827 911.707764,523.882812 
	C912.377747,524.628174 913.540771,525.321716 913.625610,526.128601 
	C913.883911,528.585388 913.726379,531.085938 913.730713,534.051880 
z"/>
<path fill="#2AA2DF" opacity="1.000000" stroke="none" 
	d="
M42.398117,501.626953 
	C43.367435,500.752197 44.761398,499.209839 46.260303,499.100037 
	C50.898781,498.760284 55.577263,498.974640 60.240158,498.957153 
	C63.801376,498.943817 64.575531,501.427734 64.980980,504.227966 
	C65.359207,506.840179 65.699097,509.457916 66.050140,512.480164 
	C64.879799,510.408813 63.095837,508.022461 62.711025,505.428497 
	C62.253922,502.347351 61.277866,501.019257 58.129810,501.173859 
	C53.048500,501.423431 47.957607,501.477814 42.398117,501.626953 
z"/>
<path fill="#2AA2DF" opacity="1.000000" stroke="none" 
	d="
M101.473541,405.005554 
	C100.989975,404.655518 100.973541,404.305634 100.922287,403.697205 
	C105.234138,403.271210 109.580795,403.103668 114.473572,402.913177 
	C115.019684,402.890228 115.433235,402.789764 115.433243,402.789764 
	C115.908508,396.514404 116.383781,390.239075 116.896240,383.500885 
	C117.098251,383.059357 117.406654,383.075409 117.407654,383.102692 
	C117.662636,390.079865 117.946030,397.057648 117.970985,404.036316 
	C117.972130,404.357300 115.653969,404.932007 114.404167,404.967133 
	C110.252594,405.083801 106.095596,405.007843 101.473541,405.005554 
z"/>
<path fill="#22AEE2" opacity="1.000000" stroke="none" 
	d="
M75.279900,519.312561 
	C82.982834,519.059692 83.179825,519.066406 82.909706,526.967407 
	C82.751503,531.594666 81.845612,536.196411 80.961258,540.961792 
	C80.985100,535.244507 81.430519,529.378601 81.628212,523.504333 
	C81.783127,518.901245 77.332359,521.203308 75.279900,519.312561 
z"/>
<path fill="#2AA2DF" opacity="1.000000" stroke="none" 
	d="
M119.709045,366.378845 
	C119.636375,367.153198 119.363174,368.200012 118.757706,368.453583 
	C113.186508,370.787201 114.281288,375.324158 114.772697,380.148682 
	C111.250893,379.256409 111.218033,376.313232 111.835106,373.587708 
	C112.716263,369.695770 114.984421,366.796265 119.709045,366.378845 
z"/>
<path fill="#3681CC" opacity="1.000000" stroke="none" 
	d="
M26.915840,430.253906 
	C31.626366,435.448944 33.482140,435.868439 41.015274,432.935181 
	C39.271679,433.987946 37.277916,435.962067 35.134937,436.140106 
	C31.286543,436.459808 28.036282,434.704529 26.915840,430.253906 
z"/>
<path fill="#37D0EB" opacity="1.000000" stroke="none" 
	d="
M127.504356,540.720886 
	C126.673691,539.679138 125.128220,538.243408 125.068932,536.748596 
	C124.867561,531.672058 125.191254,526.574768 125.509033,521.226807 
	C125.938004,525.176758 126.096519,529.391418 126.437263,533.591248 
	C126.619759,535.840576 127.115997,538.064514 127.504356,540.720886 
z"/>
<path fill="#37D0EB" opacity="1.000000" stroke="none" 
	d="
M104.578308,518.797974 
	C108.573067,518.977356 112.115273,519.238525 115.884071,519.752747 
	C109.475922,519.947144 102.841179,519.888611 96.008194,519.514465 
	C98.581886,519.092529 101.353828,518.986145 104.578308,518.797974 
z"/>
<path fill="#37D0EB" opacity="1.000000" stroke="none" 
	d="
M116.781693,521.326660 
	C117.164200,526.790833 117.347076,532.693481 117.260818,538.799561 
	C116.855148,533.257019 116.718613,527.511108 116.781693,521.326660 
z"/>
<path fill="#37D0EB" opacity="1.000000" stroke="none" 
	d="
M127.237122,554.339355 
	C129.761276,550.399475 130.569397,546.386230 127.956223,541.730713 
	C132.830566,544.617310 132.701111,549.742676 127.237122,554.339355 
z"/>
<path fill="#37D0EB" opacity="1.000000" stroke="none" 
	d="
M113.756027,542.383789 
	C114.033669,545.485718 113.976562,548.608459 113.984703,552.070007 
	C109.921951,549.320312 110.943420,545.908203 113.756027,542.383789 
z"/>
<path fill="#22AEE2" opacity="1.000000" stroke="none" 
	d="
M77.846642,549.358459 
	C80.234505,551.236633 82.456726,553.408630 84.817230,555.827454 
	C80.597191,556.123779 78.591919,553.507812 77.846642,549.358459 
z"/>
<path fill="#3681CC" opacity="1.000000" stroke="none" 
	d="
M32.770828,417.862305 
	C31.988277,418.704742 30.937708,419.357605 29.607567,420.029907 
	C30.386265,419.257111 31.444534,418.464935 32.770828,417.862305 
z"/>
<path fill="#3681CC" opacity="1.000000" stroke="none" 
	d="
M41.306496,419.890564 
	C40.231998,419.633057 39.226322,419.086823 38.096397,418.342773 
	C39.106537,418.630615 40.240925,419.116241 41.306496,419.890564 
z"/>
<path fill="#22AEE2" opacity="1.000000" stroke="none" 
	d="
M79.816826,541.543091 
	C79.573181,542.587219 79.037720,543.617432 78.312546,544.780090 
	C78.590225,543.784729 79.057617,542.656921 79.816826,541.543091 
z"/>
<path fill="#22AEE2" opacity="1.000000" stroke="none" 
	d="
M89.294159,556.116699 
	C89.887924,555.354004 90.747437,554.710449 91.906723,554.073730 
	C91.324295,554.798950 90.442101,555.517395 89.294159,556.116699 
z"/>
<path fill="#37D0EB" opacity="1.000000" stroke="none" 
	d="
M94.592102,551.346436 
	C94.252205,550.936157 94.169388,550.410095 94.274948,549.450562 
	C94.463318,549.017090 94.851624,548.991638 94.851624,548.991638 
	C94.851624,548.991638 95.229851,549.083130 95.229858,549.083130 
	C95.102974,549.799011 94.976082,550.514893 94.592102,551.346436 
z"/>
<path fill="#22AEE2" opacity="1.000000" stroke="none" 
	d="
M95.440796,548.721802 
	C95.229851,549.083130 94.851624,548.991638 94.851624,548.991638 
	C94.851624,548.991638 94.463318,549.017090 94.271194,549.051147 
	C94.184639,548.199890 94.290199,547.314575 94.733292,546.213684 
	C95.070816,545.998047 95.295776,545.963135 95.295776,545.963135 
	C95.414429,546.762268 95.533089,547.561401 95.440796,548.721802 
z"/>
<path fill="#37D0EB" opacity="1.000000" stroke="none" 
	d="
M124.205750,556.041748 
	C124.460869,555.562866 124.857315,555.264404 125.514267,554.947266 
	C125.298874,555.359802 124.822975,555.790955 124.205750,556.041748 
z"/>
<path fill="#37D0EB" opacity="1.000000" stroke="none" 
	d="
M164.145279,379.531921 
	C164.050339,379.079865 164.224060,378.664948 164.522430,378.146179 
	C164.569351,378.551239 164.491638,379.060150 164.145279,379.531921 
z"/>
<path fill="#37D0EB" opacity="1.000000" stroke="none" 
	d="
M116.640236,555.121460 
	C117.035431,554.915588 117.326439,555.002014 117.683990,555.291809 
	C117.644577,555.644043 117.513023,555.875183 117.381470,556.106323 
	C117.108200,555.848022 116.834923,555.589783 116.640236,555.121460 
z"/>
<path fill="#37D0EB" opacity="1.000000" stroke="none" 
	d="
M95.544083,545.893066 
	C95.295776,545.963135 95.070816,545.998047 94.960472,545.964539 
	C94.873192,545.576050 94.896248,545.221069 94.922714,544.602661 
	C95.214882,544.833862 95.503639,545.328369 95.544083,545.893066 
z"/>
<path fill="#37D0EB" opacity="1.000000" stroke="none" 
	d="
M161.393036,367.804871 
	C160.941177,367.859497 160.557434,367.668610 160.089569,367.342377 
	C160.490692,367.324463 160.975937,367.441925 161.393036,367.804871 
z"/>
<path fill="#3681CC" opacity="1.000000" stroke="none" 
	d="
M27.820175,421.475891 
	C27.887262,421.941956 27.701214,422.390808 27.352758,422.932922 
	C27.315914,422.503662 27.441477,421.981201 27.820175,421.475891 
z"/>
<path fill="#3681CC" opacity="1.000000" stroke="none" 
	d="
M115.467133,402.583862 
	C115.433235,402.789764 115.019684,402.890228 114.998642,402.937561 
	C114.916084,402.766724 114.854568,402.548553 114.793060,402.330383 
	C115.029053,402.346222 115.265038,402.362091 115.467133,402.583862 
z"/>
<path fill="#000" opacity="1.000000" stroke="none" 
	d="
M264.618408,417.837402 
	C278.866821,420.575195 284.718536,430.559418 279.760712,442.960724 
	C277.372589,448.934143 272.811127,452.330231 266.561707,452.806702 
	C259.953461,453.310516 253.284042,453.287109 246.658157,453.041229 
	C245.404190,452.994690 243.215576,450.859955 243.178162,449.636230 
	C242.888977,440.178497 243.035110,430.707855 243.018570,421.241241 
	C243.013489,418.337341 244.698715,417.638885 247.227951,417.680054 
	C252.872818,417.772003 258.519409,417.758881 264.618408,417.837402 
z"/>
<path fill="#000" opacity="1.000000" stroke="none" 
	d="
M784.074890,474.567444 
	C780.035522,460.397552 784.275452,447.391235 794.887695,440.731140 
	C809.288330,431.693512 829.660950,440.672546 831.873047,457.499207 
	C832.670898,463.568054 832.555420,470.262238 830.806213,476.051453 
	C827.548462,486.833282 818.838440,492.204956 807.674805,492.211426 
	C796.347473,492.217987 788.733521,486.634430 784.074890,474.567444 
z"/>
<path fill="#000" opacity="1.000000" stroke="none" 
	d="
M342.362640,437.138672 
	C355.917999,437.253693 363.293549,441.535339 366.980194,451.464417 
	C367.798126,453.667328 367.825317,456.163818 368.291351,458.976379 
	C352.483002,458.976379 337.463348,458.976379 322.505066,458.976379 
	C320.604156,449.970917 330.309265,437.824768 342.362640,437.138672 
z"/>
<path fill="#000" opacity="1.000000" stroke="none" 
	d="
M143.465698,510.992188 
	C131.313385,511.006805 119.621788,510.928955 107.468872,510.937592 
	C98.235909,510.938812 89.463776,510.885071 80.693031,510.744171 
	C78.723938,510.712555 76.759743,510.376221 74.377541,510.145630 
	C73.276520,507.982880 72.004089,505.857269 71.994804,503.726105 
	C71.871880,475.506073 71.903191,447.285278 71.954468,419.064728 
	C71.965973,412.731445 72.790375,411.999420 79.172768,411.895569 
	C85.146721,411.798279 91.121361,411.742859 97.527298,411.640381 
	C108.765266,411.726562 119.571396,411.894806 130.378052,411.942200 
	C142.867355,411.996979 155.357132,411.945374 168.125854,411.983032 
	C169.246490,414.785889 170.800354,417.540802 170.819214,420.306183 
	C171.006317,447.732361 170.950638,475.160248 170.936752,502.587677 
	C170.933243,509.531372 169.652634,510.812958 162.875259,510.850403 
	C156.559082,510.885284 150.242706,510.884674 143.465698,510.992188 
M85.186722,426.096375 
	C84.194969,428.453156 82.372803,430.799561 82.343102,433.168396 
	C82.109154,451.821686 82.093422,470.481079 82.371887,489.133209 
	C82.408333,491.574860 84.495087,493.985840 85.883774,497.063293 
	C88.528053,498.233337 91.156364,500.356659 93.819504,500.401245 
	C103.208153,500.558533 112.608757,500.002869 122.905632,499.992126 
	C131.210236,500.018768 139.515030,500.091125 147.819397,500.059143 
	C156.016129,500.027588 160.079758,496.049713 160.102371,487.981262 
	C160.151703,470.372864 160.157486,452.764191 160.122467,435.155762 
	C160.102798,425.270630 154.113205,420.725159 143.184097,422.374542 
	C126.596420,422.300568 110.006355,422.068909 93.423584,422.319519 
	C90.881844,422.357910 88.373726,424.621155 85.186722,426.096375 
z"/>
<path fill="#000" opacity="1.000000" stroke="none" 
	d="
M709.895874,542.511475 
	C705.930298,539.868042 704.639893,536.284607 706.291687,532.447205 
	C707.181152,530.380676 709.488647,528.150574 711.601379,527.543579 
	C716.183716,526.226929 719.580505,529.202698 720.021179,533.996765 
	C720.501343,539.221008 717.913757,542.643250 713.196899,542.925720 
	C712.222473,542.984070 711.231750,542.769958 709.895874,542.511475 
z"/>
<path fill="#000" opacity="1.000000" stroke="none" 
	d="
M610.169678,534.439819 
	C609.786438,524.434937 616.615845,518.500916 624.110962,521.854919 
	C628.893799,523.995178 631.151306,528.646240 630.105286,534.205139 
	C629.084778,539.628967 626.221313,542.507141 621.445374,542.909546 
	C615.417358,543.417480 612.419006,541.257019 610.169678,534.439819 
z"/>
<path fill="#000" opacity="1.000000" stroke="none" 
	d="
M779.529663,533.224365 
	C776.359375,533.225952 773.628479,533.225952 770.897522,533.225952 
	C770.585693,532.645874 770.273926,532.065796 769.962097,531.485718 
	C771.553406,530.120605 773.040283,527.813293 774.761780,527.622620 
	C777.050476,527.368958 780.010620,528.166443 781.782959,529.613770 
	C783.704895,531.183228 783.057800,533.225220 779.529663,533.224365 
z"/>
<path fill="#000" opacity="1.000000" stroke="none" 
	d="
M965.143433,531.336304 
	C966.961853,527.721619 969.784546,526.326050 973.151184,527.450806 
	C975.127686,528.111206 976.696777,529.991211 978.057922,532.165344 
	C973.451294,532.630737 969.113770,535.246216 965.143433,531.336304 
z"/>
<path fill="#000" opacity="1.000000" stroke="none" 
	d="
M675.713318,533.339844 
	C673.323181,533.339600 671.353699,533.339600 669.384277,533.339600 
	C669.032410,532.890137 668.680542,532.440613 668.328674,531.991150 
	C669.773499,530.499268 670.962646,528.280334 672.715332,527.664001 
	C676.583191,526.303833 679.920227,527.431580 681.769043,532.510254 
	C679.749878,532.807617 677.941956,533.073853 675.713318,533.339844 
z"/>
<path fill="#000" opacity="1.000000" stroke="none" 
	d="
M812.337891,542.923706 
	C807.254517,542.021545 805.413940,538.562012 806.217285,534.568359 
	C806.735352,531.993103 808.932495,528.799988 811.230774,527.746948 
	C815.392761,525.839905 819.886841,529.135742 820.752441,533.698608 
	C821.623840,538.292114 817.920654,542.568359 812.337891,542.923706 
z"/>
<path fill="#000" opacity="1.000000" stroke="none" 
	d="
M860.291504,539.518555 
	C858.238098,532.977722 859.606628,528.903503 864.110718,527.635864 
	C867.900208,526.569275 871.069519,527.492859 872.931946,531.214844 
	C874.754272,534.856689 873.729004,540.065735 870.548401,541.825378 
	C866.835693,543.879517 863.218201,543.725342 860.291504,539.518555 
z"/>
<path fill="#22AEE2" opacity="1.000000" stroke="none" 
	d="
M144.036301,422.830597 
	C154.113205,420.725159 160.102798,425.270630 160.122467,435.155762 
	C160.157486,452.764191 160.151703,470.372864 160.102371,487.981262 
	C160.079758,496.049713 156.016129,500.027588 147.819397,500.059143 
	C139.515030,500.091125 131.210236,500.018768 122.454193,499.461731 
	C122.332809,496.634155 122.662857,494.337006 123.454559,491.947571 
	C131.575943,491.841705 139.242706,491.998352 146.889877,491.681610 
	C148.568314,491.612091 151.397324,490.054688 151.591766,488.844360 
	C152.204849,485.028290 151.817810,481.051483 151.817810,476.734192 
	C148.751648,476.734192 146.428604,476.597137 144.128098,476.766541 
	C140.721680,477.017365 139.901276,475.364594 139.946503,472.263489 
	C140.029114,466.599274 144.163116,468.155457 147.146210,468.146973 
	C153.253036,468.129639 151.638947,463.732849 151.909119,460.329315 
	C152.179825,456.918762 151.655899,454.486359 147.226868,454.683929 
	C141.243927,454.950836 135.239182,454.686768 129.245804,454.779510 
	C125.881752,454.831543 123.421127,454.373962 123.282356,450.067749 
	C123.137169,445.562500 125.962624,445.905701 128.868164,445.919891 
	C133.364166,445.941864 137.860336,445.926971 142.356445,445.928955 
	C151.993393,445.933197 151.777405,445.928436 151.998306,436.528259 
	C152.091995,432.542023 150.899246,430.592621 146.915466,430.186951 
	C147.150284,428.405151 147.372620,426.983795 147.642578,425.257935 
	C146.239029,425.141937 145.109695,425.048615 143.985840,424.685791 
	C144.006302,423.887695 144.021301,423.359161 144.036301,422.830597 
z"/>
<path fill="#2AA2DF" opacity="1.000000" stroke="none" 
	d="
M122.992905,492.039856 
	C122.662857,494.337006 122.332809,496.634155 122.003792,499.324463 
	C112.608757,500.002869 103.208153,500.558533 93.819504,500.401245 
	C91.156364,500.356659 88.528053,498.233337 85.881157,496.601624 
	C85.878540,496.139923 86.128700,495.872345 86.494293,495.974854 
	C90.480087,496.706177 94.086319,497.477997 97.733147,497.833954 
	C98.401253,497.899139 99.842842,496.256195 99.819633,495.432983 
	C99.796585,494.615356 98.498970,493.425018 97.539932,493.140228 
	C96.173752,492.734528 94.468864,493.367096 93.169418,492.871887 
	C92.163498,492.488525 91.557404,491.056000 91.152832,490.313416 
	C93.618263,490.859070 95.697464,491.397705 97.791855,491.465302 
	C106.189644,491.736176 114.592140,491.861023 122.992905,492.039856 
z"/>
<path fill="#2AA2DF" opacity="1.000000" stroke="none" 
	d="
M85.755371,496.275482 
	C84.495087,493.985840 82.408333,491.574860 82.371887,489.133209 
	C82.093422,470.481079 82.109154,451.821686 82.343102,433.168396 
	C82.372803,430.799561 84.194969,428.453156 85.607307,426.063049 
	C86.027893,426.029694 86.204521,426.204559 86.085815,426.562012 
	C85.320168,429.774261 84.145737,432.623108 84.113800,435.484741 
	C83.936172,451.403748 83.893539,467.328033 84.135841,483.245453 
	C84.200058,487.463562 85.432610,491.663879 86.128700,495.872345 
	C86.128700,495.872345 85.878540,496.139923 85.755371,496.275482 
z"/>
<path fill="#2AA2DF" opacity="1.000000" stroke="none" 
	d="
M143.610199,422.602570 
	C144.021301,423.359161 144.006302,423.887695 143.519623,424.703125 
	C132.772064,424.677460 122.487274,423.954956 112.223068,424.178223 
	C103.544640,424.367004 94.590858,422.034790 86.204521,426.204559 
	C86.204521,426.204559 86.027893,426.029694 85.938980,425.942566 
	C88.373726,424.621155 90.881844,422.357910 93.423584,422.319519 
	C110.006355,422.068909 126.596420,422.300568 143.610199,422.602570 
z"/>
<path fill="#000" opacity="1.000000" stroke="none" 
	d="
M123.454559,491.947571 
	C114.592140,491.861023 106.189644,491.736176 97.791855,491.465302 
	C95.697464,491.397705 93.618263,490.859070 91.203430,489.840271 
	C90.833183,470.399261 90.791595,451.654938 91.013351,432.748993 
	C91.817978,431.966705 92.359261,431.346039 93.372147,430.779907 
	C101.209114,430.753540 108.574486,430.672607 116.394165,430.732056 
	C125.594261,430.765564 134.340057,430.658661 143.461914,430.643921 
	C144.859650,430.673187 145.881317,430.610291 146.902985,430.547394 
	C150.899246,430.592621 152.091995,432.542023 151.998306,436.528259 
	C151.777405,445.928436 151.993393,445.933197 142.356445,445.928955 
	C137.860336,445.926971 133.364166,445.941864 128.868164,445.919891 
	C125.962624,445.905701 123.137169,445.562500 123.282356,450.067749 
	C123.421127,454.373962 125.881752,454.831543 129.245804,454.779510 
	C135.239182,454.686768 141.243927,454.950836 147.226868,454.683929 
	C151.655899,454.486359 152.179825,456.918762 151.909119,460.329315 
	C151.638947,463.732849 153.253036,468.129639 147.146210,468.146973 
	C144.163116,468.155457 140.029114,466.599274 139.946503,472.263489 
	C139.901276,475.364594 140.721680,477.017365 144.128098,476.766541 
	C146.428604,476.597137 148.751648,476.734192 151.817810,476.734192 
	C151.817810,481.051483 152.204849,485.028290 151.591766,488.844360 
	C151.397324,490.054688 148.568314,491.612091 146.889877,491.681610 
	C139.242706,491.998352 131.575943,491.841705 123.454559,491.947571 
z"/>
<path fill="#0C80D5" opacity="1.000000" stroke="none" 
	d="
M146.915466,430.186951 
	C145.881317,430.610291 144.859650,430.673187 143.312286,430.288849 
	C134.105118,429.684235 125.423752,429.516052 116.741600,429.421417 
	C116.478638,429.418579 116.207306,430.184296 115.939865,430.591675 
	C108.574486,430.672607 101.209114,430.753540 93.182587,430.579895 
	C91.930954,431.187073 91.340477,432.048828 90.750008,432.910583 
	C90.791595,451.654938 90.833183,470.399261 90.824165,489.616760 
	C91.557404,491.056000 92.163498,492.488525 93.169418,492.871887 
	C94.468864,493.367096 96.173752,492.734528 97.539932,493.140228 
	C98.498970,493.425018 99.796585,494.615356 99.819633,495.432983 
	C99.842842,496.256195 98.401253,497.899139 97.733147,497.833954 
	C94.086319,497.477997 90.480087,496.706177 86.494293,495.974854 
	C85.432610,491.663879 84.200058,487.463562 84.135841,483.245453 
	C83.893539,467.328033 83.936172,451.403748 84.113800,435.484741 
	C84.145737,432.623108 85.320168,429.774261 86.085815,426.562012 
	C94.590858,422.034790 103.544640,424.367004 112.223068,424.178223 
	C122.487274,423.954956 132.772064,424.677460 143.514145,424.972656 
	C145.109695,425.048615 146.239029,425.141937 147.642578,425.257935 
	C147.372620,426.983795 147.150284,428.405151 146.915466,430.186951 
z"/>
<path fill="#2AA2DF" opacity="1.000000" stroke="none" 
	d="
M116.394173,430.732056 
	C116.207306,430.184296 116.478638,429.418579 116.741600,429.421417 
	C125.423752,429.516052 134.105118,429.684235 142.936218,430.196655 
	C134.340057,430.658661 125.594261,430.765564 116.394173,430.732056 
z"/>
<path fill="#2AA2DF" opacity="1.000000" stroke="none" 
	d="
M91.013344,432.748993 
	C91.340477,432.048828 91.930954,431.187073 92.710991,430.525330 
	C92.359261,431.346039 91.817978,431.966705 91.013344,432.748993 
z"/>
</svg>